<svg width="24" height="24" viewBox="0 0 24 24" xmlns="http://www.w3.org/2000/svg">

<path d="M10.946 16.8818H9.96915H5.95886L7.08997 14.928L8.01542 15.4421L6.98714 11.6376L3.18251 12.6658L4.10797 13.18L2 16.8304L2.97686 18.5784L3.95372 20.3265H7.96401H9.96915H10.946V18.5784V16.8818ZM15.9846 9.94088L17.0128 6.1363L16.0874 6.65044L13.9794 3H11.9743H9.96915L7.96401 6.49617L6.98714 8.24419L6.473 9.11833L7.96401 9.99234L9.45501 10.8664L9.96915 9.99234L11.9743 6.49617L13.1054 8.44992L12.1799 8.96406L15.9846 9.94088ZM19.9949 13.437L19.018 11.689L18.5039 10.8149L17.0128 11.689L15.5218 12.563L16.036 13.437L18.0411 16.9332H15.7789V15.9049L13.0026 18.6812L15.7789 21.4577V20.4294H19.9949L22 16.9332L19.9949 13.437Z"/>
</svg>
