<svg width="24" height="24" viewBox="0 0 24 24" xmlns="http://www.w3.org/2000/svg">

<path fill-rule="evenodd" clip-rule="evenodd" d="M11 5.04955C5.95 5.54503 2 9.76656 2 14.9097H4C4 10.5296 7.58 6.98194 12 6.98194C16.42 6.98194 20 10.5296 20 14.9097H22C22 9.76656 18.05 5.54503 13 5.04955L12 5L11 5.04955ZM8.17158 10.7054L11.1273 13.6344C12.2445 13.1159 13.6163 13.2981 14.5355 14.209C15.7093 15.3722 15.7093 17.2502 14.5355 18.4134C13.3617 19.5765 11.4667 19.5765 10.2929 18.4134C9.37367 17.5024 9.18982 16.143 9.71308 15.0359L6.75737 12.1069L8.17158 10.7054ZM13.1213 17.0119C13.5102 16.6265 13.5102 15.9959 13.1213 15.6105C12.7324 15.2251 12.096 15.2251 11.7071 15.6105C11.3182 15.9959 11.3182 16.6265 11.7071 17.0119C12.096 17.3973 12.7324 17.3973 13.1213 17.0119Z"/>
</svg>
