<svg width="30" height="32" viewBox="0 0 30 32" xmlns="http://www.w3.org/2000/svg">
<path d="M24 19V28C24 28.5523 23.5523 29 23 29H7C6.44772 29 6 28.5523 6 28V19H4V29C4 30.6569 5.34315 32 7 32H23C24.6569 32 26 30.6569 26 29V19H24Z"/>
<path d="M23 0H7C5.34315 0 4 1.34315 4 3V13H6V4C6 3.44772 6.44772 3 7 3H23C23.5523 3 24 3.44772 24 4V13H26V3C26 1.34315 24.6569 0 23 0Z"/>
<path d="M18 21H17.948C17.6177 20.981 17.3182 20.7998 17.148 20.516L11.955 11.87L8.832 16.555C8.64647 16.8331 8.33428 17.0001 8 17H0V15H7.465L11.165 9.44502C11.3496 9.15255 11.6776 8.98243 12.023 9.00002C12.3658 9.00803 12.6805 9.19108 12.857 9.48502L18.093 18.21L20.2 15.4C20.3889 15.1482 20.6852 15 21 15H30V17H21.5L18.8 20.6C18.6111 20.8518 18.3148 21 18 21Z"/>
</svg>
