<svg width="24" height="24" viewBox="0 0 24 24" fill="none" xmlns="http://www.w3.org/2000/svg">
<path d="M22 11.1667H20.2908C19.8992 7.23583 16.7642 4.10083 12.8333 3.70917V2H11.1667V3.70917C7.23583 4.10083 4.10083 7.23583 3.70917 11.1667H2V12.8333H3.70917C4.10167 16.7642 7.23583 19.8992 11.1667 20.2908V22H12.8333V20.2908C16.7642 19.8983 19.8992 16.7642 20.2908 12.8333H22V11.1667ZM12.8333 18.6092V17H11.1667V18.6092C8.15667 18.2308 5.76917 15.8433 5.39083 12.8333H7V11.1667H5.39083C5.76917 8.15667 8.15667 5.76917 11.1667 5.39083V7H12.8333V5.39083C15.8433 5.76833 18.2308 8.15667 18.6092 11.1667H17V12.8333H18.6092C18.2308 15.8433 15.8433 18.2308 12.8333 18.6092Z"/>
<path d="M12.0002 13.6666C12.9206 13.6666 13.6668 12.9205 13.6668 12C13.6668 11.0795 12.9206 10.3333 12.0002 10.3333C11.0797 10.3333 10.3335 11.0795 10.3335 12C10.3335 12.9205 11.0797 13.6666 12.0002 13.6666Z"/>
</svg>
