<svg width="24" height="24" viewBox="0 0 24 24" fill="none" xmlns="http://www.w3.org/2000/svg">
<path fill-rule="evenodd" clip-rule="evenodd" d="M18.5 15.3224V15.3202V15.3185V15.3163V15.3113V15.3063V15.3041V15.3024V15.3002V15.2897C18.5 15.2852 18.5 15.2813 18.5 15.2769V15.2758V15.2736V15.2686V15.2641V15.2619V15.2602V15.258V15.2475C18.5 15.243 18.5 15.2391 18.5 15.2347V15.2336V15.2314V15.2264V15.2219V15.2197V15.218V15.2158V15.2064V15.2058C18.5 15.2014 18.5 15.1975 18.5 15.1931V15.1919V15.1897V15.1847V15.1803V15.1781V15.1764V15.1742V15.1647V15.1636C18.5 15.1592 18.5 15.1553 18.4995 15.1509V15.1498V15.1475V15.1425V15.1381V15.1359V15.1342V15.132L18.4989 15.1231V15.122C18.4989 15.1176 18.4989 15.1137 18.4984 15.1092V15.1081V15.1059V15.1009V15.0965V15.0942V15.0926V15.0898L18.4978 15.0809V15.0798C18.4978 15.0754 18.4973 15.0715 18.4973 15.067V15.0659V15.0637V15.0582V15.0537V15.0515V15.0498V15.0471L18.4968 15.0387V15.0371V15.0365C18.4968 15.0321 18.4962 15.0282 18.4962 15.0237V15.0226V15.0204V15.0149V15.011V15.0087V15.0071V15.0043L18.4957 14.996V14.9943V14.991C18.4957 14.9865 18.4951 14.9827 18.4951 14.9782V14.9771V14.9749L18.4946 14.9693V14.9654V14.9632V14.9616V14.9588L18.494 14.9505V14.9488V14.9482C18.494 14.9438 18.4935 14.9399 18.4935 14.9355V14.9344V14.9321L18.493 14.9266V14.9227V14.9205V14.9188V14.916L18.4924 14.9083V14.9066V14.906C18.4924 14.9016 18.4919 14.8977 18.4919 14.8933V14.8922V14.8899L18.4913 14.8844V14.8805V14.8783V14.8766V14.8738L18.4908 14.8661V14.8644V14.8638C18.4903 14.8594 18.4903 14.8555 18.4897 14.8511V14.85V14.8477L18.4892 14.8416V14.8378V14.8355V14.8339V14.8311L18.4886 14.8233V14.8217V14.8211C18.4881 14.8167 18.4881 14.8128 18.4876 14.8083V14.8072V14.805L18.487 14.7989L18.4865 14.795V14.7928V14.7911V14.7883L18.4859 14.7811V14.7795V14.7789C18.4854 14.7745 18.4854 14.7706 18.4848 14.7661V14.765V14.7628L18.4843 14.7567L18.4838 14.7528V14.7506V14.7489V14.7461L18.4832 14.7389V14.7367V14.7362C18.4827 14.7317 18.4827 14.7278 18.4821 14.7234V14.7223V14.7201L18.4816 14.7139L18.4811 14.7106V14.7084V14.7067L18.4805 14.7034L18.48 14.6962V14.694V14.6934C18.4794 14.689 18.4794 14.6851 18.4789 14.6806V14.6801V14.6779L18.4783 14.6718L18.4778 14.6684V14.6662V14.6645L18.4773 14.6612L18.4767 14.6545V14.6523V14.6518C18.4762 14.6473 18.4756 14.6434 18.4756 14.639V14.6384V14.6362L18.4751 14.6296L18.4746 14.6262V14.624V14.6223L18.474 14.619L18.4735 14.6124V14.6101V14.6096C18.4729 14.6051 18.4724 14.6012 18.4724 14.5968V14.5963V14.594L18.4719 14.5874L18.4713 14.584V14.5824V14.5807L18.4708 14.5774L18.4702 14.5707V14.5685V14.5679C18.4697 14.5641 18.4691 14.5596 18.4686 14.5552V14.5546V14.5524L18.4681 14.5457L18.4675 14.5424V14.5407V14.5391L18.467 14.5357L18.4664 14.5291V14.5269V14.5263C18.4659 14.5224 18.4654 14.518 18.4648 14.5135V14.513V14.5108L18.4637 14.5041L18.4632 14.5008V14.4991V14.4969L18.4627 14.4935L18.4621 14.4874V14.4852V14.4847C18.4616 14.4802 18.461 14.4763 18.4605 14.4719V14.4713V14.4697L18.4594 14.4625L18.4589 14.4591V14.4575V14.4552L18.4583 14.4519L18.4572 14.4458L18.4567 14.4436V14.443C18.4562 14.4391 18.4556 14.4347 18.4551 14.4303V14.4297V14.428L18.454 14.4208L18.4534 14.418V14.4164V14.4142L18.4529 14.4108L18.4518 14.4047V14.4025V14.4019C18.4513 14.3975 18.4507 14.3936 18.4502 14.3892V14.3886V14.387L18.4491 14.3797L18.4486 14.377V14.3753L18.448 14.3731L18.4475 14.3692L18.4464 14.3631L18.4459 14.3609V14.3603C18.4453 14.3559 18.4448 14.352 18.4442 14.3475V14.347V14.3453L18.4432 14.3375L18.4426 14.3348V14.3331L18.4421 14.3309L18.4415 14.327L18.4405 14.3209L18.4399 14.3187V14.3176C18.4394 14.3131 18.4388 14.3092 18.4378 14.3048V14.3042V14.3026L18.4367 14.2948L18.4361 14.292V14.2904L18.4356 14.2881L18.435 14.2842L18.434 14.2781L18.4334 14.2759V14.2748C18.4329 14.2709 18.4323 14.2665 18.4313 14.262V14.2615V14.2604L18.4302 14.2526L18.4296 14.2498V14.2482L18.4291 14.2459L18.4286 14.2421L18.4275 14.2365L18.4269 14.2343V14.2332C18.4264 14.2287 18.4258 14.2248 18.4248 14.221V14.2204V14.2193L18.4237 14.211L18.4231 14.2082V14.2065L18.4226 14.2043L18.4221 14.2004L18.421 14.1949L18.4204 14.1926V14.1915C18.4199 14.1876 18.4188 14.1832 18.4183 14.1788V14.1777L18.4166 14.1693L18.4161 14.1666V14.1649L18.4156 14.1627L18.415 14.1588L18.4139 14.1532L18.4134 14.151V14.1499C18.4129 14.1455 18.4118 14.1416 18.4112 14.1371V14.136L18.4096 14.1271L18.4091 14.1244V14.1227L18.4085 14.121L18.408 14.1166L18.4069 14.111L18.4064 14.1088V14.1077C18.4058 14.1038 18.4047 14.0994 18.4042 14.0949V14.0944L18.4026 14.0855L18.402 14.0827V14.0816L18.4015 14.0799L18.4009 14.0755L18.3999 14.07L18.3993 14.0683V14.0672C18.3988 14.0627 18.3977 14.0588 18.3972 14.0544V14.0539L18.3955 14.0444L18.395 14.0416V14.0405L18.3945 14.0389L18.3934 14.0344L18.3923 14.0289L18.3917 14.0272V14.0261C18.3912 14.0222 18.3901 14.0178 18.3896 14.0133L18.388 14.0039L18.3874 14.0011V14L18.3869 13.9983L18.3858 13.9939L18.3847 13.9889L18.3842 13.9872V13.9861C18.3825 13.9778 18.3809 13.9695 18.3793 13.9611V13.96L18.3788 13.9584L18.3777 13.9539L18.3766 13.9489L18.376 13.9473V13.9461C18.3744 13.9378 18.3728 13.9295 18.3706 13.9212V13.9201L18.3701 13.9184L18.369 13.9134L18.3679 13.9084L18.3674 13.9067V13.9056C18.3658 13.8973 18.3641 13.889 18.362 13.8806V13.8795L18.3614 13.8779L18.3603 13.8729L18.3593 13.8679L18.3587 13.8662V13.8651C18.3571 13.8568 18.3549 13.8484 18.3533 13.8401V13.839L18.3528 13.8373L18.3517 13.8323L18.3506 13.8273L18.3501 13.8257V13.8246C18.3484 13.8162 18.3463 13.8079 18.3447 13.7996V13.7985L18.3441 13.7968L18.343 13.7918L18.3419 13.7868L18.3414 13.7851V13.784C18.3392 13.7757 18.3376 13.7674 18.3355 13.7591V13.7579L18.3349 13.7563L18.3338 13.7513L18.3327 13.7463L18.3322 13.7446V13.7435C18.33 13.7352 18.3284 13.7269 18.3262 13.7185V13.7174L18.3257 13.7158L18.3246 13.7102L18.3235 13.7052L18.323 13.7035V13.7024C18.3208 13.6941 18.3192 13.6858 18.317 13.6774V13.6769L18.3165 13.6752L18.3154 13.6697L18.3143 13.6647L18.3138 13.663V13.6619C18.3116 13.6536 18.3095 13.6452 18.3073 13.6369V13.6364L18.3068 13.6353L18.3051 13.6297L18.3041 13.6247L18.3035 13.623V13.6219C18.3013 13.6136 18.2992 13.6053 18.297 13.5969V13.5964L18.2965 13.5953L18.2949 13.5892L18.2938 13.5847L18.2932 13.5836V13.5825C18.2911 13.5742 18.2889 13.5659 18.2867 13.5575V13.557L18.2862 13.5559L18.2846 13.5498L18.2835 13.5453L18.2829 13.5442V13.5431C18.2808 13.5348 18.2786 13.5264 18.2765 13.5181V13.5176L18.2759 13.5164L18.2743 13.5103L18.2732 13.5059L18.2727 13.5048V13.5037C18.2705 13.4954 18.2678 13.487 18.2656 13.4787V13.4781V13.477L18.264 13.4704L18.2629 13.4659L18.2624 13.4648V13.4637C18.2602 13.4554 18.2575 13.4471 18.2553 13.4387V13.4382V13.4376L18.2532 13.431L18.2521 13.4265L18.2516 13.4254V13.4243C18.2494 13.416 18.2467 13.4076 18.244 13.3993V13.3988V13.3982L18.2418 13.3915L18.2407 13.3871L18.2402 13.386V13.3854C18.2375 13.3771 18.2353 13.3688 18.2326 13.3604V13.3599L18.2304 13.3527L18.2294 13.3482V13.3471V13.3466C18.2267 13.3382 18.2245 13.3299 18.2218 13.3216V13.321L18.2196 13.3138L18.218 13.3094L18.2175 13.3088V13.3083C18.2147 13.2999 18.212 13.2916 18.2093 13.2833L18.2072 13.2755L18.2055 13.2711V13.2705V13.27C18.2018 13.2577 18.1974 13.245 18.1936 13.2328V13.2322V13.2316C18.1893 13.2189 18.1855 13.2067 18.1812 13.1939V13.1933V13.1928C18.1769 13.18 18.1731 13.1678 18.1687 13.155V13.1545V13.1539C18.1644 13.1412 18.1601 13.1289 18.1557 13.1162V13.1156V13.1151C18.1514 13.1023 18.1471 13.0901 18.1428 13.0773V13.0768V13.0762C18.1384 13.0634 18.1341 13.0512 18.1292 13.0384V13.0379C18.1249 13.0251 18.12 13.0129 18.1157 13.0001V12.9996C18.1114 12.9868 18.1065 12.9746 18.1016 12.9618C17.9733 12.6154 17.818 12.2829 17.6377 11.967L17.0618 10.9438L11.9997 2L6.38446 11.9759C5.82206 12.9624 5.5 14.1094 5.5 15.3335C5.5 19.0132 8.41265 22 11.9997 22C15.4888 22 18.3398 19.1742 18.493 15.6333L18.4935 15.6228V15.6222L18.494 15.6122V15.6111L18.4946 15.6017V15.6L18.4951 15.5906V15.5889L18.4957 15.58V15.5778L18.4962 15.5689V15.5667L18.4968 15.5584V15.5556V15.5473V15.5445V15.5367V15.5334V15.5262V15.5228V15.5156V15.5117V15.5045V15.5006V15.494V15.4901V15.4834V15.479V15.4723V15.4679V15.4618V15.4573V15.4512V15.4462V15.4401V15.4351V15.4296V15.4246V15.419V15.4135V15.4079V15.4024V15.3974V15.3918V15.3868V15.3807V15.3757V15.3696V15.3652V15.3585V15.3541V15.3468V15.3435C18.4968 15.3396 18.4968 15.3363 18.4968 15.333L18.5 15.3224ZM11.9997 20.3334V17.0001C14.2471 17.0001 16.0718 15.1331 16.0718 12.8336C16.0718 12.7481 16.0691 12.6632 16.0642 12.5788C16.5736 13.3688 16.8702 14.3159 16.8702 15.3335C16.8707 18.0927 14.6883 20.3334 11.9997 20.3334Z"/>
</svg>
