<svg width="24" height="24" viewBox="0 0 24 24" fill="none" xmlns="http://www.w3.org/2000/svg">
<g clip-path="url(#clip0)">
<path d="M17.25 4.7858L14.835 6.78522C16.72 7.79488 18 9.76943 18 12.0474C18 15.3449 15.315 18.0158 12 18.0158C8.685 18.0158 6 15.3449 6 12.0474C6 8.74982 8.685 6.07895 11.995 6.07895V7.07369L14.995 4.58685L11.995 2.10001V3.09474C7.03 3.09474 3 7.10353 3 12.0474C3 16.9912 7.03 21 12 21C16.97 21 21 16.9912 21 12.0474C21 9.05322 19.52 6.41219 17.25 4.7858Z"/>
<path d="M13.5 15.0316H10.5V18.5132H13.5V15.0316Z"/>
<path d="M13.5 8.90401V12.0474H10.5V8.90401C9.32 9.46106 8.5 10.6597 8.5 12.0474C8.5 13.9722 10.065 15.529 12 15.529C13.935 15.529 15.5 13.9722 15.5 12.0474C15.5 10.6597 14.68 9.46603 13.5 8.90401Z"/>
</g>
<defs>
<clipPath id="clip0">
<rect width="18" height="18.9" fill="white" transform="translate(3 2.10001)"/>
</clipPath>
</defs>
</svg>
