<svg width="24" height="24" viewBox="0 0 24 24" xmlns="http://www.w3.org/2000/svg">

<path fill-rule="evenodd" clip-rule="evenodd" d="M17.5751 2H11.7945V11.2999C10.0814 12.2893 8.92886 14.1387 8.92886 16.2568C8.92886 19.4172 11.4948 21.9792 14.6601 21.9792C17.8253 21.9792 20.3913 19.4172 20.3913 16.2568C20.3913 14.1591 19.2609 12.325 17.5751 11.3288V2ZM14.6601 19.6113C12.8046 19.6113 11.3004 18.1095 11.3004 16.2568C11.3004 14.7295 12.3227 13.4405 13.7213 13.035V3.92393H15.6482V13.0497C17.0215 13.471 18.0198 14.7475 18.0198 16.2568C18.0198 18.1095 16.5156 19.6113 14.6601 19.6113Z"/>
<path d="M8.71217 22H3V16.3555L8.71217 22Z"/>
</svg>
