<svg width="24" height="24" viewBox="0 0 24 24" xmlns="http://www.w3.org/2000/svg">

<path d="M15.3333 11.5714C15.3333 10.5238 14.4762 9.66667 13.4286 9.66667C12.381 9.66667 11.5238 10.5238 11.5238 11.5714C11.5238 12.619 12.381 13.4762 13.4286 13.4762C14.4762 13.4762 15.3333 12.619 15.3333 11.5714ZM13.4286 3C8.69524 3 4.85714 6.8381 4.85714 11.5714H2L5.80952 15.381L9.61905 11.5714H6.7619C6.7619 7.88571 9.74286 4.90476 13.4286 4.90476C17.1143 4.90476 20.0952 7.88571 20.0952 11.5714C20.0952 15.2571 17.1143 18.2381 13.4286 18.2381C11.9905 18.2381 10.6571 17.7714 9.5619 17L8.20952 18.3714C9.65714 19.4762 11.4667 20.1429 13.4286 20.1429C18.1619 20.1429 22 16.3048 22 11.5714C22 6.8381 18.1619 3 13.4286 3Z"/>
</svg>
