<svg width="24" height="24" viewBox="0 0 24 24" fill="none" xmlns="http://www.w3.org/2000/svg">
<path d="M9.845 15.6783L7 12.8333C6.77335 12.6232 6.47571 12.5065 6.16667 12.5065C5.85762 12.5065 5.55998 12.6232 5.33333 12.8333C5.11289 13.0546 4.98911 13.3543 4.98911 13.6667C4.98911 13.979 5.11289 14.2787 5.33333 14.5L7.83333 17C7.87313 17.0384 7.90487 17.0844 7.92671 17.1352C7.94854 17.1861 7.96004 17.2408 7.96052 17.2961C7.961 17.3514 7.95046 17.4063 7.92951 17.4575C7.90856 17.5087 7.87762 17.5552 7.8385 17.5943C7.79938 17.6334 7.75285 17.6644 7.70165 17.6853C7.65044 17.7063 7.59557 17.7168 7.54025 17.7163C7.48492 17.7159 7.43025 17.7044 7.37941 17.6825C7.32858 17.6607 7.2826 17.629 7.24417 17.5892L4.74417 15.0892C4.41499 14.7587 4.2107 14.3243 4.16617 13.86C4.12164 13.3957 4.23963 12.9303 4.5 12.5433V9.08333C4.5 8.75181 4.3683 8.43387 4.13388 8.19944C3.89946 7.96502 3.58152 7.83333 3.25 7.83333C2.91848 7.83333 2.60054 7.96502 2.36612 8.19944C2.1317 8.43387 2 8.75181 2 9.08333V14.75C1.99982 15.1286 2.12855 15.496 2.365 15.7917L5.33333 19.5V22H10.3333V16.8567C10.3332 16.4147 10.1576 15.9908 9.845 15.6783Z"/>
<path d="M14.155 15.6783L17 12.8333C17.2267 12.6232 17.5243 12.5065 17.8334 12.5065C18.1424 12.5065 18.44 12.6232 18.6667 12.8333C18.8871 13.0546 19.0109 13.3543 19.0109 13.6667C19.0109 13.979 18.8871 14.2787 18.6667 14.5L16.1667 17C16.1269 17.0384 16.0951 17.0844 16.0733 17.1352C16.0515 17.1861 16.04 17.2408 16.0395 17.2961C16.039 17.3514 16.0496 17.4063 16.0705 17.4575C16.0915 17.5087 16.1224 17.5552 16.1615 17.5943C16.2006 17.6334 16.2472 17.6644 16.2984 17.6853C16.3496 17.7063 16.4044 17.7168 16.4598 17.7163C16.5151 17.7159 16.5698 17.7044 16.6206 17.6825C16.6714 17.6607 16.7174 17.629 16.7559 17.5892L19.2559 15.0892C19.585 14.7587 19.7893 14.3243 19.8338 13.86C19.8784 13.3957 19.7604 12.9303 19.5 12.5433V9.08333C19.5 8.75181 19.6317 8.43387 19.8661 8.19944C20.1006 7.96502 20.4185 7.83333 20.75 7.83333C21.0815 7.83333 21.3995 7.96502 21.6339 8.19944C21.8683 8.43387 22 8.75181 22 9.08333V14.75C22.0002 15.1286 21.8715 15.496 21.635 15.7917L18.6667 19.5V22H13.6667V16.8567C13.6668 16.4147 13.8424 15.9908 14.155 15.6783Z"/>
<path d="M15.3333 7.65333C15.3333 5.72667 13.0558 3.15333 12.5992 2.65333L12 2L11.4008 2.65167C10.9442 3.15167 8.66666 5.72667 8.66666 7.65167C8.64985 8.10255 8.72324 8.55226 8.88253 8.9744C9.04182 9.39655 9.28379 9.78264 9.59426 10.11C9.90474 10.4374 10.2775 10.6995 10.6906 10.881C11.1037 11.0624 11.5489 11.1595 12 11.1667C12.451 11.1595 12.896 11.0625 13.309 10.8811C13.722 10.6998 14.0947 10.4378 14.4051 10.1106C14.7156 9.7834 14.9576 9.39751 15.117 8.97556C15.2763 8.55361 15.3499 8.10408 15.3333 7.65333Z"/>
</svg>
