<svg width="24" height="24" viewBox="0 0 24 24" fill="none" xmlns="http://www.w3.org/2000/svg">
<path d="M11.0526 9.3158L10.0526 8.31579L8.94737 9.42104L11.1053 11.5789L14.8421 7.84209L13.7368 6.73684L11.0526 9.3158ZM11.8421 2C8.05263 2 5 5.05263 5 8.84211C5 11.0526 6.05263 13 7.63158 14.2105V22L11.8421 19.3684L16.0526 22V14.2105C17.6316 12.9473 18.6842 11 18.6842 8.84211C18.6842 5.05263 15.6316 2 11.8421 2ZM11.8421 13.5789C9.21053 13.5789 7.10526 11.4737 7.10526 8.84211C7.10526 6.21053 9.21053 4.10526 11.8421 4.10526C14.4737 4.10526 16.5789 6.21053 16.5789 8.84211C16.5789 11.4737 14.4737 13.5789 11.8421 13.5789Z"/>
</svg>
