<svg width="32" height="32" viewBox="0 0 32 32" xmlns="http://www.w3.org/2000/svg">
<path d="M16 32C24.8366 32 32 24.8366 32 16C32 7.16344 24.8366 0 16 0C7.16344 0 0 7.16344 0 16C0 24.8366 7.16344 32 16 32Z" fill="white"/>
<path fill-rule="evenodd" clip-rule="evenodd" d="M16 7.46667L29.5369 7.46667V7.46667C28.9727 6.57344 28.3225 5.73994 27.5979 4.97778V4.97778H16V7.46667ZM16 0C19.1545 0 22.0958 0.912886 24.5741 2.48889H16V0ZM16 12.4444H31.6035C31.4089 11.5866 31.1453 10.7549 30.8189 9.95556H16V12.4444ZM0 16C0 16.4793 0.0210741 16.9537 0.0623463 17.4222H31.9377C31.9789 16.9537 32 16.4793 32 16C32 15.6416 31.9882 15.2859 31.965 14.9333H16V16H0ZM31.5185 19.9111C31.3026 20.7704 31.0172 21.6022 30.6687 22.4H1.33134C0.982759 21.6022 0.697359 20.7704 0.481465 19.9111H31.5185ZM29.3057 24.8889C28.7046 25.7869 28.0149 26.6207 27.2493 27.3778H4.75072C3.98507 26.6207 3.29544 25.7869 2.69431 24.8889H29.3057ZM23.9876 29.8667C21.637 31.2236 18.9092 32 16 32C13.0908 32 10.363 31.2236 8.01243 29.8667H23.9876H23.9876Z" fill="#E94B35"/>
<path fill-rule="evenodd" clip-rule="evenodd" d="M16 0C7.16344 0 0 7.16344 0 16H16V0Z" fill="#227FBB"/>
<path fill-rule="evenodd" clip-rule="evenodd" d="M6.11778 6.12649L5.63276 6.39981L5.72539 5.82092L5.33301 5.41095L5.87527 5.32649L6.11778 4.7998L6.36029 5.32649L6.90255 5.41095L6.51017 5.82092L6.6028 6.39981L6.11778 6.12649Z" fill="white"/>
<path fill-rule="evenodd" clip-rule="evenodd" d="M6.11778 8.97024L5.63276 9.24355L5.72539 8.66467L5.33301 8.2547L5.87527 8.17024L6.11778 7.64355L6.36029 8.17024L6.90255 8.2547L6.51017 8.66467L6.6028 9.24355L6.11778 8.97024Z" fill="white"/>
<path fill-rule="evenodd" clip-rule="evenodd" d="M4.16173 7.90383L3.67671 8.17715L3.76934 7.59826L3.37695 7.18829L3.91922 7.10384L4.16173 6.57715L4.40423 7.10384L4.9465 7.18829L4.55411 7.59826L4.64674 8.17715L4.16173 7.90383Z" fill="white"/>
<path fill-rule="evenodd" clip-rule="evenodd" d="M3.98399 10.5708L3.49898 10.8441L3.59161 10.2653L3.19922 9.85529L3.74148 9.77083L3.98399 9.24414L4.2265 9.77083L4.76877 9.85529L4.37638 10.2653L4.46901 10.8441L3.98399 10.5708Z" fill="white"/>
<path fill-rule="evenodd" clip-rule="evenodd" d="M5.76231 12.3482L5.2773 12.6215L5.36993 12.0426L4.97754 11.6326L5.5198 11.5482L5.76231 11.0215L6.00482 11.5482L6.54709 11.6326L6.1547 12.0426L6.24733 12.6215L5.76231 12.3482Z" fill="white"/>
<path fill-rule="evenodd" clip-rule="evenodd" d="M3.98399 13.4156L3.49898 13.6889L3.59161 13.11L3.19922 12.7L3.74148 12.6156L3.98399 12.0889L4.2265 12.6156L4.76877 12.7L4.37638 13.11L4.46901 13.6889L3.98399 13.4156Z" fill="white"/>
<path fill-rule="evenodd" clip-rule="evenodd" d="M2.02891 11.9927L1.5439 12.266L1.63653 11.6871L1.24414 11.2772L1.78641 11.1927L2.02891 10.666L2.27142 11.1927L2.81369 11.2772L2.4213 11.6871L2.51393 12.266L2.02891 11.9927Z" fill="white"/>
<path fill-rule="evenodd" clip-rule="evenodd" d="M2.02891 14.8374L1.5439 15.1107L1.63653 14.5319L1.24414 14.1219L1.78641 14.0374L2.02891 13.5107L2.27142 14.0374L2.81369 14.1219L2.4213 14.5319L2.51393 15.1107L2.02891 14.8374Z" fill="white"/>
<path fill-rule="evenodd" clip-rule="evenodd" d="M6.11778 14.8374L5.63276 15.1107L5.72539 14.5319L5.33301 14.1219L5.87527 14.0374L6.11778 13.5107L6.36029 14.0374L6.90255 14.1219L6.51017 14.5319L6.6028 15.1107L6.11778 14.8374Z" fill="white"/>
<path fill-rule="evenodd" clip-rule="evenodd" d="M14.2955 2.9263L13.8105 3.19961L13.9031 2.62072L13.5107 2.21076L14.053 2.1263L14.2955 1.59961L14.538 2.1263L15.0803 2.21076L14.6879 2.62072L14.7805 3.19961L14.2955 2.9263Z" fill="white"/>
<path fill-rule="evenodd" clip-rule="evenodd" d="M14.2955 5.77102L13.8105 6.04434L13.9031 5.46545L13.5107 5.05548L14.053 4.97102L14.2955 4.44434L14.538 4.97102L15.0803 5.05548L14.6879 5.46545L14.7805 6.04434L14.2955 5.77102Z" fill="white"/>
<path fill-rule="evenodd" clip-rule="evenodd" d="M14.2955 8.61477L13.8105 8.88809L13.9031 8.3092L13.5107 7.89923L14.053 7.81477L14.2955 7.28809L14.538 7.81477L15.0803 7.89923L14.6879 8.3092L14.7805 8.88809L14.2955 8.61477Z" fill="white"/>
<path fill-rule="evenodd" clip-rule="evenodd" d="M14.2955 11.4595L13.8105 11.7328L13.9031 11.1539L13.5107 10.744L14.053 10.6595L14.2955 10.1328L14.538 10.6595L15.0803 10.744L14.6879 11.1539L14.7805 11.7328L14.2955 11.4595Z" fill="white"/>
<path fill-rule="evenodd" clip-rule="evenodd" d="M12.1617 4.52591L11.6767 4.79922L11.7693 4.22033L11.377 3.81036L11.9192 3.72591L12.1617 3.19922L12.4042 3.72591L12.9465 3.81036L12.5541 4.22033L12.6467 4.79922L12.1617 4.52591Z" fill="white"/>
<path fill-rule="evenodd" clip-rule="evenodd" d="M12.1617 7.37063L11.6767 7.64395L11.7693 7.06506L11.377 6.65509L11.9192 6.57063L12.1617 6.04395L12.4042 6.57063L12.9465 6.65509L12.5541 7.06506L12.6467 7.64395L12.1617 7.37063Z" fill="white"/>
<path fill-rule="evenodd" clip-rule="evenodd" d="M12.1617 10.2154L11.6767 10.4887L11.7693 9.90979L11.377 9.49982L11.9192 9.41536L12.1617 8.88867L12.4042 9.41536L12.9465 9.49982L12.5541 9.90979L12.6467 10.4887L12.1617 10.2154Z" fill="white"/>
<path fill-rule="evenodd" clip-rule="evenodd" d="M12.1617 13.0601L11.6767 13.3334L11.7693 12.7545L11.377 12.3445L11.9192 12.2601L12.1617 11.7334L12.4042 12.2601L12.9465 12.3445L12.5541 12.7545L12.6467 13.3334L12.1617 13.0601Z" fill="white"/>
<path fill-rule="evenodd" clip-rule="evenodd" d="M14.2955 14.482L13.8105 14.7553L13.9031 14.1764L13.5107 13.7664L14.053 13.682L14.2955 13.1553L14.538 13.682L15.0803 13.7664L14.6879 14.1764L14.7805 14.7553L14.2955 14.482Z" fill="white"/>
<path fill-rule="evenodd" clip-rule="evenodd" d="M10.3844 3.28177L9.89937 3.55508L9.992 2.97619L9.59961 2.56622L10.1419 2.48177L10.3844 1.95508L10.6269 2.48177L11.1692 2.56622L10.7768 2.97619L10.8694 3.55508L10.3844 3.28177Z" fill="white"/>
<path fill-rule="evenodd" clip-rule="evenodd" d="M10.3844 6.12649L9.89937 6.39981L9.992 5.82092L9.59961 5.41095L10.1419 5.32649L10.3844 4.7998L10.6269 5.32649L11.1692 5.41095L10.7768 5.82092L10.8694 6.39981L10.3844 6.12649Z" fill="white"/>
<path fill-rule="evenodd" clip-rule="evenodd" d="M10.3844 8.97024L9.89937 9.24355L9.992 8.66467L9.59961 8.2547L10.1419 8.17024L10.3844 7.64355L10.6269 8.17024L11.1692 8.2547L10.7768 8.66467L10.8694 9.24355L10.3844 8.97024Z" fill="white"/>
<path fill-rule="evenodd" clip-rule="evenodd" d="M10.3844 11.815L9.89937 12.0883L9.992 11.5094L9.59961 11.0994L10.1419 11.015L10.3844 10.4883L10.6269 11.015L11.1692 11.0994L10.7768 11.5094L10.8694 12.0883L10.3844 11.815Z" fill="white"/>
<path fill-rule="evenodd" clip-rule="evenodd" d="M8.25059 4.88235L7.76558 5.15566L7.85821 4.57678L7.46582 4.16681L8.00809 4.08235L8.25059 3.55566L8.4931 4.08235L9.03537 4.16681L8.64298 4.57678L8.73561 5.15566L8.25059 4.88235Z" fill="white"/>
<path fill-rule="evenodd" clip-rule="evenodd" d="M8.25059 7.7261L7.76558 7.99941L7.85821 7.42053L7.46582 7.01056L8.00809 6.9261L8.25059 6.39941L8.4931 6.9261L9.03537 7.01056L8.64298 7.42053L8.73561 7.99941L8.25059 7.7261Z" fill="white"/>
<path fill-rule="evenodd" clip-rule="evenodd" d="M8.25059 10.5708L7.76558 10.8441L7.85821 10.2653L7.46582 9.85529L8.00809 9.77083L8.25059 9.24414L8.4931 9.77083L9.03537 9.85529L8.64298 10.2653L8.73561 10.8441L8.25059 10.5708Z" fill="white"/>
<path fill-rule="evenodd" clip-rule="evenodd" d="M8.25059 13.4156L7.76558 13.6889L7.85821 13.11L7.46582 12.7L8.00809 12.6156L8.25059 12.0889L8.4931 12.6156L9.03537 12.7L8.64298 13.11L8.73561 13.6889L8.25059 13.4156Z" fill="white"/>
<path fill-rule="evenodd" clip-rule="evenodd" d="M10.3844 14.8374L9.89937 15.1107L9.992 14.5319L9.59961 14.1219L10.1419 14.0374L10.3844 13.5107L10.6269 14.0374L11.1692 14.1219L10.7768 14.5319L10.8694 15.1107L10.3844 14.8374Z" fill="white"/>
</svg>
