<svg width="24" height="24" viewBox="0 0 24 24" xmlns="http://www.w3.org/2000/svg">
<path d="M11 18C11 14.691 13.691 12 17 12C17.765 12 18.494 12.149 19.168 12.411C19.676 11.219 20 10.054 20 9C20 3.366 15.424 0 11 0C6.576 0 2 3.366 2 9C2 14.289 9.952 22.363 10.29 22.705C10.478 22.894 10.733 23 11 23C11.267 23 11.522 22.894 11.71 22.705C11.767 22.648 12.051 22.358 12.463 21.915C11.554 20.862 11 19.496 11 18ZM8 9C8 7.343 9.343 6 11 6C12.657 6 14 7.343 14 9C14 10.657 12.657 12 11 12C9.343 12 8 10.657 8 9Z"/>
<path d="M22.707 22.293L20.433 20.019C20.785 19.424 21 18.74 21 18C21 15.794 19.206 14 17 14C14.794 14 13 15.794 13 18C13 20.206 14.794 22 17 22C17.74 22 18.424 21.785 19.019 21.433L21.293 23.707L22.707 22.293ZM17 20C15.897 20 15 19.103 15 18C15 16.897 15.897 16 17 16C18.103 16 19 16.897 19 18C19 19.103 18.103 20 17 20Z"/>
</svg>
