<svg width="24" height="24" viewBox="0 0 24 24" xmlns="http://www.w3.org/2000/svg">

<path d="M19.0763 4.9287C15.1703 1.02377 8.83564 1.02377 4.92956 4.9287C1.02348 8.83363 1.02348 15.1664 4.92956 19.0713C8.83564 22.9762 15.1703 22.9762 19.0763 19.0713C21.0333 17.1149 22 14.5614 22 12H19.768C19.7758 13.9878 19.0213 15.9835 17.5045 17.4999C14.4629 20.5406 9.54298 20.5406 6.50142 17.4999C3.45987 14.4592 3.45987 9.54076 6.50142 6.5001C9.54298 3.45944 14.4629 3.45944 17.5045 6.5001L15.1467 8.8572L21.4263 8.84934L21.4341 2.5716L19.0763 4.9287Z"/>
<path d="M8.07539 14.0101V14.8689H12.0379V13.8945H9.7038V13.856L10.5153 13.0495C10.8971 12.6971 11.1929 12.3953 11.4028 12.1439C11.6127 11.8906 11.7583 11.6603 11.8397 11.453C11.923 11.2456 11.9646 11.0355 11.9646 10.8227C11.9646 10.4979 11.8822 10.2098 11.7176 9.95836C11.5529 9.70696 11.3223 9.51061 11.0255 9.36931C10.7306 9.22618 10.3841 9.15461 9.98605 9.15461C9.59886 9.15461 9.25689 9.22893 8.96016 9.37757C8.66342 9.52621 8.43273 9.73632 8.26808 10.0079C8.10343 10.2795 8.02111 10.5997 8.02111 10.9685H9.13657C9.13657 10.7887 9.17095 10.6336 9.2397 10.5034C9.30846 10.3731 9.40616 10.2731 9.53281 10.2033C9.65947 10.1336 9.80783 10.0987 9.97791 10.0987C10.1408 10.0987 10.2864 10.1318 10.4149 10.1978C10.5433 10.2621 10.6447 10.3547 10.7188 10.4758C10.793 10.5951 10.8301 10.7373 10.8301 10.9025C10.8301 11.0511 10.8003 11.1897 10.7406 11.3181C10.6808 11.4447 10.5931 11.5741 10.4773 11.7062C10.3633 11.8383 10.2222 11.987 10.0539 12.1521L8.07539 14.0101Z"/>
<path fill-rule="evenodd" clip-rule="evenodd" d="M12.6858 12.9394V13.878H15.3537V14.8689H16.4773V13.878H17.1667V12.9229H16.4773V9.23169H15.0063L12.6858 12.9394ZM15.3754 10.5309H15.332L13.8691 12.8788V12.9229H15.3754V10.5309Z"/>
</svg>
