<svg width="24" height="24" viewBox="0 0 24 24" xmlns="http://www.w3.org/2000/svg">

<path d="M17 9.15789C13.6842 9.15789 10.3158 6 7 6C3.68421 6 2 7.57895 2 7.57895V10.7368C2 10.7368 3.68421 9.15789 7 9.15789C10.3158 9.15789 13.6842 12.3158 17 12.3158C20.3158 12.3158 22 10.7368 22 10.7368V7.57895C22 7.57895 20.3158 9.15789 17 9.15789ZM7 12.3158C3.68421 12.3158 2 13.8947 2 13.8947V17.0526C2 17.0526 3.68421 15.4737 7 15.4737C10.3158 15.4737 13.6842 18.6316 17 18.6316C20.3158 18.6316 22 17.0526 22 17.0526V13.8947C22 13.8947 20.3158 15.4737 17 15.4737C13.6842 15.4737 10.3158 12.3158 7 12.3158Z"/>
</svg>
