<svg width="24" height="24" viewBox="0 0 24 24" fill="none" xmlns="http://www.w3.org/2000/svg">
<path fill-rule="evenodd" clip-rule="evenodd" d="M13.8505 4.26287L11.9691 3L10.1005 4.25L11.2126 5.91233L11.9672 5.40751L12.7359 5.92347L13.8505 4.26287ZM9.35309 4.75L10.4651 6.41233L6.72802 8.91233L5.61598 7.25L9.35309 4.75ZM21 11.5489H19V10.1281L18.0039 9.4595L19.1186 7.7989L21 9.06177V11.5489ZM18.366 7.29375L17.2513 8.95435L13.4885 6.42862L14.6031 4.76801L18.366 7.29375ZM21 12.5438H19V17.518H21V12.5438ZM21 18.5129H19V19H18.5V21H21V18.5129ZM17.5 21V19H12.5V21H17.5ZM11.5 21V19H6.5V21H11.5ZM5.5 21V19H5V18.5H3V21H5.5ZM3 17.5H5V12.5H3V17.5ZM3 11.5H5V10.0683L5.9806 9.41233L4.86856 7.75L3 9V11.5Z"/>
<path fill-rule="evenodd" clip-rule="evenodd" d="M11.9691 3L3 9V21H11.9691V9.06177V3Z"/>
</svg>
