<svg width="24" height="24" viewBox="0 0 24 24" fill="none" xmlns="http://www.w3.org/2000/svg">
<path d="M19.9648 8.03131C20.7476 7.44423 21.4521 6.73973 22 5.91781C21.2955 6.23092 20.4736 6.46575 19.6517 6.54403C20.5127 6.03522 21.1389 5.25245 21.4521 4.27397C20.6693 4.74364 19.7691 5.09589 18.8689 5.29158C18.0861 4.46967 17.0294 4 15.8552 4C13.5851 4 11.7456 5.83953 11.7456 8.10959C11.7456 8.4227 11.7847 8.73581 11.863 9.04892C8.45793 8.85323 5.40509 7.20939 3.36986 4.74364C3.01761 5.33072 2.82192 6.03522 2.82192 6.818C2.82192 8.22701 3.52642 9.47945 4.66145 10.2231C3.99609 10.184 3.33072 10.0274 2.78278 9.71428V9.75342C2.78278 11.7495 4.19178 13.3933 6.07045 13.7847C5.75734 13.863 5.36595 13.9413 5.0137 13.9413C4.73973 13.9413 4.50489 13.9022 4.23092 13.863C4.73973 15.5068 6.26614 16.681 8.06654 16.7202C6.65753 17.816 4.89628 18.4814 2.97847 18.4814C2.62622 18.4814 2.31311 18.4423 2 18.4031C3.80039 19.5773 5.95303 20.2427 8.30137 20.2427C15.8552 20.2427 19.9648 14.0196 19.9648 8.57926C19.9648 8.38356 19.9648 8.22701 19.9648 8.03131Z"/>
</svg>
