<svg width="24" height="24" viewBox="0 0 24 24" fill="none" xmlns="http://www.w3.org/2000/svg">
<path d="M8.84211 17.7895V22H15.1579V17.7895L12 15.6842L8.84211 17.7895ZM13.0526 12C13.0526 11.4211 12.5789 10.9474 12 10.9474C11.4211 10.9474 10.9474 11.4211 10.9474 12C10.9474 12.5789 11.4211 13.0526 12 13.0526C12.5789 13.0526 13.0526 12.5789 13.0526 12ZM2 10.9474V15.1579H8.31579V10.9474L5.15789 8.84211L2 10.9474ZM18.8421 8.84211L15.6842 10.9474V15.1579H22V10.9474L18.8421 8.84211ZM8.84211 4.10526V8.31579H15.1579V4.10526L12 2L8.84211 4.10526Z"/>
</svg>
