<svg width="24" height="24" viewBox="0 0 24 24" fill="none" xmlns="http://www.w3.org/2000/svg">
<path fill-rule="evenodd" clip-rule="evenodd" d="M10.7333 19.1429H13.2667V22H10.7333V19.1429ZM6.30019 16.6427L5.03346 14.4999L2.5 15.9285L3.76673 18.0713L6.30019 16.6427ZM20.2333 18.0713L21.5 15.9285L18.9665 14.4999L17.6998 16.6427L20.2333 18.0713ZM7.52259 15.6763C6.66609 14.6822 6.14965 13.3997 6.14965 11.9998C6.14965 8.84575 8.7713 6.28561 12 6.28561C14.2217 6.28561 16.1563 7.49811 17.1463 9.28164C17.1517 9.29163 17.1575 9.30162 17.1629 9.31162C17.1683 9.32161 17.1736 9.3316 17.179 9.3416V9.34207V9.34255C17.1843 9.35254 17.1897 9.36253 17.1951 9.37205V9.37253V9.373C17.2004 9.383 17.2053 9.39251 17.2107 9.40251V9.40298V9.40346C17.216 9.41345 17.2209 9.42297 17.2262 9.43296V9.43344L17.2267 9.43391L17.2287 9.43772L17.2316 9.44343V9.44391C17.235 9.45057 17.2384 9.45723 17.2418 9.46389V9.46437L17.2423 9.46485L17.2443 9.46913L17.2467 9.47389L17.2472 9.47436V9.47484C17.2506 9.4815 17.254 9.48816 17.2569 9.49482V9.4953L17.2574 9.49578L17.2599 9.50006L17.2623 9.50482L17.2628 9.50529V9.50577C17.2662 9.51243 17.2691 9.51909 17.2725 9.52576V9.52623L17.273 9.52671L17.2754 9.53147L17.2774 9.53575L17.2779 9.5367L17.2784 9.53718C17.2818 9.54384 17.2847 9.5505 17.2881 9.55716V9.55764L17.2886 9.55811L17.291 9.56335L17.293 9.56716L17.2935 9.56811L17.294 9.56858C17.2974 9.57525 17.3003 9.58191 17.3037 9.58857L17.3042 9.58905L17.3066 9.59476L17.3081 9.59809L17.3086 9.59904L17.3091 9.59999L17.3105 9.60285L17.3139 9.60951C17.3154 9.61284 17.3173 9.61617 17.3188 9.61998V9.62045L17.3217 9.62664L17.3232 9.62949L17.3237 9.63045L17.3242 9.6314L17.3256 9.63425L17.3286 9.64044V9.64091C17.33 9.64425 17.3315 9.64758 17.3334 9.65091L17.3363 9.65757L17.3378 9.66042L17.3383 9.66138L17.3388 9.66233L17.3402 9.66566L17.3427 9.67089L17.3432 9.67185V9.67232C17.3461 9.67898 17.349 9.68565 17.3524 9.69231L17.3529 9.69326L17.3534 9.69421L17.3549 9.69802L17.3568 9.70278L17.3573 9.70373V9.7042C17.3602 9.71087 17.3631 9.71753 17.3661 9.72419L17.3666 9.72514L17.367 9.72609L17.369 9.7299L17.3709 9.73418L17.3714 9.73514V9.73561C17.3744 9.74227 17.3773 9.74893 17.3802 9.7556L17.3807 9.75607L17.3812 9.75702L17.3831 9.76131L17.3851 9.76559L17.3856 9.76654L17.386 9.76749C17.389 9.77416 17.3919 9.78082 17.3948 9.78748L17.3953 9.78796L17.3958 9.78891L17.3977 9.79319L17.3992 9.797L17.3997 9.79795L17.4002 9.7989C17.4031 9.80556 17.406 9.81222 17.4085 9.81889V9.81936L17.4089 9.82031L17.4109 9.82507L17.4124 9.8284L17.4128 9.82983L17.4133 9.83078L17.4143 9.83316L17.4172 9.83982V9.8403C17.4187 9.84363 17.4201 9.84696 17.4216 9.85029V9.85077L17.4221 9.85172L17.424 9.85696L17.4255 9.85981L17.426 9.86124L17.4265 9.86219L17.4275 9.86505L17.4299 9.87123L17.4304 9.87218V9.87266C17.4318 9.87599 17.4333 9.87932 17.4348 9.88265V9.88313L17.4353 9.88408L17.4377 9.88979L17.4387 9.89265L17.4392 9.8936L17.4396 9.89502L17.4406 9.89788L17.443 9.90359L17.4435 9.90454V9.90502C17.445 9.90835 17.4465 9.91168 17.4474 9.91501L17.4479 9.91596L17.4504 9.92215L17.4513 9.92453L17.4518 9.92548L17.4523 9.92691L17.4538 9.93024L17.4557 9.935L17.4562 9.93642V9.9369C17.4577 9.94023 17.4586 9.94356 17.4601 9.94689V9.94737L17.463 9.95451L17.464 9.95689L17.4645 9.95784L17.465 9.95927L17.4664 9.9626L17.4684 9.96736L17.4689 9.96878L17.4694 9.96926C17.4708 9.97259 17.4718 9.97592 17.4733 9.97925L17.4762 9.98687L17.4772 9.98877L17.4776 9.98972L17.4781 9.99115L17.4796 9.99496L17.481 9.99924L17.4815 10.0007L17.482 10.0016C17.4845 10.0083 17.4869 10.0149 17.4898 10.0216L17.4903 10.0226L17.4908 10.024L17.4923 10.0278L17.4937 10.0316L17.4942 10.033L17.4947 10.034C17.4971 10.0406 17.4996 10.0473 17.502 10.054L17.5025 10.0549L17.503 10.0563L17.5044 10.0606L17.5059 10.064L17.5064 10.0654L17.5069 10.0663L17.5078 10.0682L17.5103 10.0754V10.0759C17.5113 10.0792 17.5127 10.0825 17.5142 10.0858L17.5147 10.0863L17.5152 10.0877L17.5171 10.0925L17.5181 10.0958L17.5186 10.0973L17.5191 10.0982L17.52 10.1006L17.5225 10.1068L17.5229 10.1077V10.1082C17.5239 10.1115 17.5254 10.1149 17.5264 10.1182V10.1187L17.5268 10.1201L17.5288 10.1253L17.5298 10.1282L17.5303 10.1296L17.5307 10.1311L17.5317 10.1334L17.5337 10.1391L17.5342 10.1406V10.141C17.5351 10.1444 17.5366 10.1477 17.5376 10.151V10.1515L17.5381 10.1529L17.54 10.1587L17.541 10.1615L17.5415 10.1629L17.542 10.1644L17.5429 10.1672L17.5449 10.1725L17.5454 10.1739V10.1744C17.5463 10.1777 17.5478 10.181 17.5488 10.1843V10.1848L17.5493 10.1863L17.5512 10.1924L17.5522 10.1948L17.5527 10.1962L17.5532 10.1977L17.5541 10.201L17.5556 10.2058L17.5561 10.2072V10.2081C17.5571 10.2115 17.5585 10.2148 17.5595 10.2181L17.56 10.2191L17.5624 10.2257L17.5629 10.2281L17.5634 10.2296L17.5639 10.231L17.5648 10.2343L17.5663 10.2386L17.5668 10.2405L17.5673 10.2415C17.5683 10.2448 17.5697 10.2481 17.5707 10.2514V10.2519L17.5731 10.2595L17.5736 10.2614L17.5741 10.2624L17.5746 10.2643L17.5756 10.2681L17.577 10.2719L17.5775 10.2738L17.578 10.2748C17.58 10.2814 17.5824 10.2881 17.5843 10.2947L17.5848 10.2957L17.5853 10.2976L17.5868 10.3014L17.5877 10.3052L17.5882 10.3071L17.5887 10.3081L17.5892 10.31L17.5916 10.3176V10.3181C17.5926 10.3214 17.5936 10.3247 17.5946 10.3281L17.5951 10.329L17.5955 10.3309L17.597 10.3352L17.598 10.3385L17.5985 10.3404L17.599 10.3419L17.5994 10.3438L17.6014 10.3504L17.6019 10.3514V10.3519C17.6029 10.3552 17.6038 10.3585 17.6048 10.3618L17.6053 10.3628L17.6058 10.3647L17.6072 10.3695L17.6082 10.3723L17.6087 10.3737L17.6092 10.3752L17.6097 10.3775L17.6116 10.3837L17.6121 10.3852V10.3856C17.6131 10.389 17.6141 10.3923 17.615 10.3956V10.3961L17.6155 10.398L17.617 10.4032L17.618 10.4061L17.6184 10.4075L17.6189 10.409L17.6199 10.4113L17.6214 10.4166L17.6219 10.418V10.4185C17.6228 10.4218 17.6238 10.4251 17.6248 10.4285V10.4289L17.6253 10.4304L17.6267 10.4361L17.6277 10.4385L17.6282 10.4399L17.6287 10.4413L17.6296 10.4442L17.6311 10.4489L17.6316 10.4508V10.4513C17.6326 10.4546 17.6335 10.458 17.6345 10.4613V10.4618L17.635 10.4632L17.6365 10.4694L17.637 10.4718L17.6374 10.4732L17.6379 10.4751L17.6389 10.4784L17.6404 10.4832L17.6409 10.4851V10.486C17.6418 10.4894 17.6428 10.4927 17.6438 10.496L17.6443 10.497L17.6462 10.5037L17.6467 10.5056L17.6472 10.507L17.6477 10.5089L17.6486 10.5122L17.6496 10.5165L17.6501 10.5184L17.6506 10.5194C17.6516 10.5227 17.6525 10.526 17.6535 10.5293V10.5298L17.6555 10.5374L17.656 10.5393L17.6564 10.5408L17.6569 10.5427L17.6579 10.5465L17.6589 10.5503L17.6594 10.5522L17.6599 10.5531C17.6618 10.5598 17.6633 10.5669 17.6652 10.5736L17.6657 10.5746L17.6662 10.5765L17.6672 10.5803L17.6681 10.5841L17.6686 10.586L17.6691 10.5874L17.6696 10.5893L17.6715 10.5964V10.5974C17.6725 10.6007 17.6735 10.6041 17.674 10.6079V10.6088L17.6745 10.6107L17.6754 10.615L17.6764 10.6183L17.6769 10.6202L17.6774 10.6217L17.6779 10.6236L17.6793 10.6302L17.6798 10.6317V10.6321C17.6808 10.6355 17.6818 10.6388 17.6823 10.6426V10.6436L17.6828 10.6455L17.6837 10.6502L17.6847 10.6531L17.6852 10.655L17.6857 10.6564L17.6862 10.6588L17.6876 10.6645L17.6881 10.6659V10.6664C17.6891 10.6697 17.6896 10.6731 17.6905 10.6764V10.6769L17.691 10.6788L17.6925 10.684L17.693 10.6869L17.6935 10.6883L17.694 10.6897L17.6944 10.6921L17.6959 10.6973L17.6964 10.6992V10.6997C17.6974 10.703 17.6979 10.7064 17.6988 10.7102V10.7107L17.6993 10.7126L17.7008 10.7183L17.7013 10.7206L17.7018 10.7221L17.7022 10.724L17.7027 10.7268L17.7037 10.7316L17.7042 10.7335V10.7344C17.7052 10.7378 17.7057 10.7411 17.7066 10.7449V10.7454L17.7071 10.7468L17.7086 10.753L17.7091 10.7554L17.7095 10.7568L17.71 10.7587L17.711 10.762L17.712 10.7668L17.7125 10.7687V10.7697C17.7134 10.773 17.7139 10.7763 17.7149 10.7801V10.7806L17.7154 10.782L17.7169 10.7887L17.7173 10.7906L17.7178 10.792L17.7183 10.7939L17.7193 10.7973L17.7203 10.8015L17.7208 10.8034L17.7212 10.8044C17.7222 10.8077 17.7227 10.8111 17.7237 10.8149V10.8153L17.7251 10.823L17.7256 10.8249L17.7261 10.8263L17.7266 10.8282L17.7276 10.832L17.7285 10.8358L17.729 10.8377V10.8387L17.7295 10.8406L17.7315 10.8487V10.8491C17.732 10.8525 17.7329 10.8558 17.7334 10.8596V10.8605L17.7339 10.8625L17.7349 10.8667L17.7359 10.8701L17.7363 10.872L17.7368 10.8734L17.7373 10.8753L17.7388 10.8824V10.8834C17.7393 10.8867 17.7402 10.8905 17.7407 10.8939V10.8948L17.7412 10.8967L17.7422 10.901L17.7427 10.9043L17.7432 10.9062L17.7437 10.9077L17.7441 10.91L17.7456 10.9167L17.7461 10.9181V10.9186C17.7466 10.9219 17.7476 10.9257 17.748 10.9291V10.93L17.7485 10.9319L17.7495 10.9367L17.75 10.9395L17.7505 10.9414L17.751 10.9429L17.7514 10.9453L17.7524 10.951L17.7529 10.9529V10.9533C17.7534 10.9567 17.7544 10.9605 17.7549 10.9638V10.9643L17.7553 10.9662L17.7563 10.9714L17.7568 10.9743L17.7573 10.9762L17.7578 10.9776L17.7583 10.9805L17.7592 10.9857L17.7597 10.9876V10.9881C17.7602 10.9914 17.7612 10.9952 17.7617 10.9985V10.999L17.7622 11.0009L17.7631 11.0066L17.7636 11.009L17.7641 11.0104L17.7646 11.0123L17.7651 11.0152L17.7661 11.02L17.7666 11.0219V11.0228C17.767 11.0261 17.768 11.03 17.7685 11.0333V11.0338L17.769 11.0352L17.77 11.0414L17.7704 11.0438L17.7709 11.0452L17.7714 11.0471L17.7719 11.0504L17.7729 11.0552L17.7734 11.0571V11.058C17.7739 11.0614 17.7743 11.0652 17.7753 11.0685V11.069V11.0699L17.7763 11.0771L17.7768 11.079V11.0804L17.7773 11.0823L17.7778 11.0856L17.7782 11.0899L17.7787 11.0918V11.0928C17.7792 11.0961 17.7797 11.0999 17.7802 11.1032V11.1037L17.7817 11.1118L17.7821 11.1137V11.1151L17.7826 11.117L17.7831 11.1208L17.7836 11.1247L17.7841 11.1266V11.128L17.7846 11.1299L17.786 11.138V11.1385C17.7865 11.1418 17.787 11.1456 17.7875 11.1489V11.1499L17.788 11.1518L17.7885 11.1561L17.789 11.1594L17.7895 11.1613V11.1627L17.7899 11.1646L17.7909 11.1718V11.1727V11.1732C17.7914 11.1765 17.7919 11.1803 17.7924 11.1837V11.1846L17.7929 11.1865L17.7933 11.1913L17.7938 11.1946L17.7943 11.1965V11.1979L17.7948 11.2003L17.7958 11.207V11.2084V11.2089C17.7963 11.2122 17.7968 11.216 17.7972 11.2193V11.2203L17.7977 11.2222L17.7982 11.227L17.7987 11.2298L17.7992 11.2317V11.2331L17.7997 11.2355L17.8007 11.2412L17.8011 11.2431V11.2436C17.8016 11.2469 17.8021 11.2508 17.8026 11.2541V11.2546L17.8031 11.2565L17.8036 11.2617L17.8041 11.2646V11.2665V11.2684L17.8046 11.2712L17.805 11.2765L17.8055 11.2784V11.2788C17.806 11.2822 17.8065 11.286 17.807 11.2893V11.2898V11.2917L17.808 11.2974L17.8085 11.2998V11.3012V11.3031L17.8089 11.306L17.8094 11.3107L17.8099 11.3126V11.3136C17.8104 11.3169 17.8109 11.3207 17.8114 11.324V11.3245V11.3259L17.8123 11.3326L17.8128 11.335V11.3364V11.3383L17.8133 11.3416L17.8138 11.3464L17.8143 11.3483V11.3493C17.8148 11.3526 17.8153 11.3564 17.8153 11.3597V11.3607L17.8162 11.3678V11.3697V11.3711L17.8167 11.3731L17.8172 11.3769L17.8177 11.3811V11.383V11.384C17.8182 11.3873 17.8187 11.3911 17.8187 11.3945V11.3949L17.8197 11.4035V11.4054V11.4068V11.4087L17.8201 11.4125L17.8206 11.4164V11.4183V11.4197V11.4216L17.8216 11.4297V11.4302C17.8221 11.4335 17.8226 11.4373 17.8226 11.4406V11.4416V11.4435L17.8231 11.4478L17.8236 11.4516V11.4535V11.4549V11.4568L17.824 11.4639V11.4654V11.4658C17.8245 11.4697 17.8245 11.473 17.825 11.4763V11.4773V11.4792L17.8255 11.4839L17.826 11.4873V11.4892V11.4906L17.8265 11.493L17.827 11.4992V11.5006V11.5011C17.8275 11.5049 17.8275 11.5082 17.8279 11.512V11.513V11.5149L17.8284 11.5201L17.8289 11.5229V11.5249V11.5263V11.5291L17.8294 11.5348V11.5367V11.5372C17.8299 11.541 17.8299 11.5444 17.8304 11.5482V11.5486V11.5505L17.8309 11.5563V11.5591V11.561V11.5629V11.5658L17.8313 11.571V11.5729V11.5734C17.8318 11.5772 17.8318 11.5805 17.8323 11.5843V11.5848V11.5867L17.8328 11.5929V11.5953V11.5967V11.5986V11.6019L17.8333 11.6067V11.6086V11.6096C17.8338 11.6134 17.8338 11.6167 17.8343 11.6205V11.621V11.6224L17.8348 11.6291V11.6314V11.6329V11.6348V11.6381L17.8352 11.6429V11.6448V11.6457C17.8352 11.6495 17.8357 11.6529 17.8357 11.6567V11.6576L17.8362 11.6652V11.6671V11.6686V11.6705V11.6743L17.8367 11.6786V11.6805V11.6814C17.8367 11.6852 17.8372 11.6885 17.8372 11.6924L17.8377 11.7014V11.7033V11.7047V11.7066V11.7109V11.7147V11.7166V11.7181V11.72L17.8382 11.728V11.729C17.8382 11.7328 17.8387 11.7361 17.8387 11.7399V11.7409V11.7428V11.7471V11.7504V11.7523V11.7537V11.7561L17.8391 11.7633V11.7647V11.7652C17.8391 11.769 17.8396 11.7723 17.8396 11.7761V11.7771V11.779V11.7837V11.7871V11.789V11.7904V11.7928V11.7989V11.8009V11.8013C17.8396 11.8051 17.8401 11.8085 17.8401 11.8123V11.8132V11.8151V11.8204V11.8232V11.8251V11.827V11.8299V11.8356V11.8375V11.838C17.8401 11.8418 17.8401 11.8451 17.8406 11.8489V11.8494V11.8513V11.857V11.8599V11.8618V11.8637V11.8665V11.8718V11.8737V11.8746C17.8406 11.8784 17.8406 11.8817 17.8406 11.8856V11.886V11.8879V11.8941V11.8965V11.8979V11.8998V11.9032V11.9079V11.9098V11.9108C17.8406 11.9146 17.8406 11.9179 17.8406 11.9217V11.9222V11.9236V11.9308V11.9331V11.9346V11.9365V11.9398V11.9446V11.9465V11.9474C17.8406 11.9512 17.8406 11.9546 17.8406 11.9584V11.9593V11.9674V11.9693V11.9707V11.9726V11.9764V11.9807V11.9826V11.9836V11.9855V11.9945C17.8406 15.1452 15.2243 17.7039 11.9995 17.7087H11.9903C11.9864 17.7087 11.9825 17.7087 11.979 17.7087H11.9776H11.9756H11.9713H11.9669H11.9649H11.9639C11.96 17.7087 11.9562 17.7087 11.9527 17.7087H11.9523H11.9435H11.9415H11.9401H11.9381H11.9342H11.9298H11.9279H11.9269C11.923 17.7087 11.9196 17.7087 11.9157 17.7087H11.9147H11.9065H11.9045H11.903H11.9011H11.8972H11.8923H11.8904H11.8894C11.8855 17.7087 11.8821 17.7087 11.8782 17.7087H11.8777H11.8767H11.8689H11.8665H11.865H11.8631H11.8597H11.8548H11.8529H11.8519C11.848 17.7087 11.8441 17.7087 11.8407 17.7082H11.8402H11.8387H11.8314H11.829H11.8275H11.8256H11.8222H11.8173H11.8153H11.8144C11.8105 17.7082 11.8071 17.7082 11.8032 17.7077H11.8027H11.8012H11.7944H11.792H11.7905H11.7886H11.7851H11.7798H11.7778H11.7769C11.773 17.7077 11.7696 17.7072 11.7657 17.7072H11.7652H11.7632L11.7569 17.7068H11.754H11.7525H11.7506H11.7471H11.7418H11.7398H11.7389C11.735 17.7068 11.7315 17.7063 11.7277 17.7063H11.7272H11.7252L11.7189 17.7058H11.716H11.714H11.7121H11.7091L11.7033 17.7053H11.7013H11.7009C11.697 17.7053 11.6935 17.7049 11.6897 17.7049H11.6892H11.6872L11.6814 17.7044H11.6784H11.6765H11.675H11.6721L11.6663 17.7039H11.6643H11.6638C11.6599 17.7039 11.6565 17.7034 11.6526 17.7034H11.6521H11.6502L11.6443 17.703H11.6414H11.6395H11.638H11.6351L11.6287 17.7025H11.6268H11.6263C11.6224 17.7025 11.619 17.702 11.6151 17.702H11.6141H11.6122L11.6068 17.7015H11.6034H11.6015H11.6H11.5976L11.5912 17.7011H11.5898H11.5893C11.5854 17.7006 11.582 17.7006 11.5781 17.7001H11.5771H11.5752L11.5698 17.6996L11.5664 17.6992H11.5644H11.563H11.5605L11.562 17.6987H11.5605H11.5601C11.5562 17.6982 11.5527 17.6982 11.5488 17.6977H11.5479H11.5459L11.5411 17.6973L11.5376 17.6968H11.5357H11.5342H11.5318L11.5245 17.6963H11.523H11.5225C11.5186 17.6958 11.5152 17.6958 11.5113 17.6954H11.5104H11.5084L11.5035 17.6949L11.4996 17.6944H11.4977H11.4962H11.4938L11.486 17.6939H11.485C11.4811 17.6934 11.4777 17.6934 11.4738 17.693H11.4728H11.4709L11.4665 17.6925L11.4626 17.692H11.4607H11.4592H11.4573L11.449 17.6911H11.4485C11.4446 17.6906 11.4412 17.6906 11.4373 17.6901H11.4363H11.4344L11.43 17.6896L11.4261 17.6892H11.4241H11.4227H11.4207L11.4119 17.6882H11.4115C11.4076 17.6877 11.4041 17.6873 11.4003 17.6873H11.3988H11.3968L11.3925 17.6868L11.3886 17.6863H11.3866H11.3856C11.3817 17.6858 11.3783 17.6854 11.3744 17.6854L11.3657 17.6844H11.3637H11.3622H11.3603L11.3564 17.6839L11.352 17.6835H11.3501H11.3491C11.3452 17.683 11.3418 17.6825 11.3379 17.682H11.3374L11.3291 17.6811L11.3272 17.6806H11.3257H11.3238L11.3199 17.6801L11.3155 17.6796L11.3135 17.6792H11.3126C11.3087 17.6787 11.3052 17.6782 11.3013 17.6777H11.3004L11.2926 17.6768L11.2906 17.6763H11.2892H11.2872L11.2833 17.6758L11.2789 17.6754L11.277 17.6749H11.276C11.2721 17.6744 11.2687 17.6739 11.2648 17.6735H11.2643H11.2633L11.256 17.6725L11.2536 17.672H11.2521H11.2502L11.2468 17.6716L11.2419 17.6711L11.24 17.6706H11.239C11.2356 17.6701 11.2317 17.6697 11.2283 17.6692H11.2278H11.2263L11.2195 17.6682L11.2171 17.6678H11.2156L11.2137 17.6673L11.2102 17.6668L11.2054 17.6663L11.2034 17.6658H11.2024C11.1985 17.6654 11.1951 17.6649 11.1917 17.6644H11.1912H11.1898L11.1834 17.6635L11.181 17.663H11.1795L11.1776 17.6625L11.1742 17.662L11.1688 17.6611L11.1669 17.6606H11.1659C11.1625 17.6601 11.1586 17.6597 11.1552 17.6592H11.1547H11.1532L11.1469 17.6582L11.1445 17.6578H11.143L11.1411 17.6573L11.1381 17.6568L11.1328 17.6559L11.1308 17.6554H11.1303C11.1269 17.6549 11.123 17.6544 11.1196 17.654H11.1191L11.1172 17.6535L11.1113 17.6525L11.1084 17.652H11.107L11.1055 17.6516L11.1026 17.6511L11.0967 17.6501L11.0948 17.6497H11.0943C11.0909 17.6492 11.087 17.6487 11.0836 17.6478H11.0831L11.0811 17.6473L11.0753 17.6463L11.0724 17.6459L11.0704 17.6454L11.069 17.6449L11.066 17.6444L11.0602 17.6435L11.0582 17.643H11.0577C11.0543 17.6425 11.0504 17.6421 11.047 17.6411H11.0465L11.0446 17.6406L11.0392 17.6397L11.0363 17.6392L11.0344 17.6387L11.0329 17.6382L11.0305 17.6378L11.0241 17.6368L11.0227 17.6363H11.0222C11.0188 17.6359 11.0149 17.6349 11.0115 17.6344H11.0105L11.0085 17.634L11.0032 17.633L10.9998 17.6325L10.9978 17.6321L10.9964 17.6316L10.9939 17.6311L10.9876 17.6302L10.9861 17.6297H10.9856C10.9822 17.6292 10.9783 17.6283 10.9749 17.6278H10.9739L10.972 17.6273L10.9671 17.6264L10.9637 17.6259L10.9618 17.6254L10.9603 17.6249L10.9579 17.6244L10.951 17.623H10.9496H10.9491C10.9457 17.6225 10.9418 17.6216 10.9384 17.6211H10.9374L10.9355 17.6206L10.9306 17.6197L10.9272 17.6192L10.9252 17.6187L10.9238 17.6183L10.9213 17.6178L10.914 17.6164H10.913C10.9096 17.6159 10.9057 17.6149 10.9023 17.6145H10.9014L10.8994 17.614L10.895 17.613L10.8916 17.6126L10.8897 17.6121L10.8882 17.6116L10.8863 17.6111L10.8785 17.6097H10.8775C10.8741 17.6092 10.8702 17.6083 10.8668 17.6078H10.8658L10.8638 17.6073L10.8595 17.6064L10.8556 17.6054L10.8536 17.6049L10.8521 17.6045L10.8502 17.604L10.8419 17.6026H10.8414C10.838 17.6016 10.8341 17.6011 10.8307 17.6007H10.8297L10.8278 17.6002L10.8234 17.5992L10.8195 17.5983L10.8176 17.5978L10.8166 17.5973L10.8146 17.5968L10.8059 17.5949C10.8025 17.594 10.7986 17.5935 10.7951 17.5926H10.7942L10.7922 17.5921L10.7883 17.5911L10.7844 17.5902L10.7825 17.5897L10.7815 17.5892C10.7781 17.5883 10.7742 17.5878 10.7708 17.5869L10.762 17.585L10.7601 17.5845L10.7586 17.584L10.7567 17.5835L10.7528 17.5826L10.7484 17.5816L10.7464 17.5811H10.7454C10.742 17.5802 10.7381 17.5797 10.7347 17.5788H10.7342L10.7264 17.5769L10.7245 17.5764L10.723 17.5759L10.7211 17.5754L10.7172 17.5745L10.7128 17.5735L10.7109 17.5731H10.7099C10.7065 17.5721 10.7026 17.5716 10.6992 17.5707H10.6982L10.6909 17.5688L10.6889 17.5683L10.6875 17.5678L10.6855 17.5673L10.6821 17.5664L10.6777 17.5654L10.6758 17.565H10.6748C10.6714 17.564 10.6675 17.5635 10.6641 17.5626H10.6636L10.6626 17.5621L10.6558 17.5607L10.6534 17.5602L10.6519 17.5597L10.65 17.5593L10.6465 17.5583L10.6417 17.5574L10.6397 17.5569H10.6388C10.6353 17.5559 10.6314 17.5554 10.628 17.5545H10.6275L10.6261 17.554L10.6193 17.5526L10.6168 17.5521L10.6154 17.5516L10.6134 17.5512L10.61 17.5502L10.6051 17.5488L10.6032 17.5483H10.6022C10.5988 17.5474 10.5954 17.5464 10.5915 17.5459H10.591L10.5895 17.5455L10.5832 17.544L10.5808 17.5436L10.5793 17.5431L10.5779 17.5426L10.5749 17.5416L10.5696 17.5402L10.5676 17.5397H10.5671C10.5637 17.5388 10.5603 17.5378 10.5564 17.5369H10.5559L10.5545 17.5364L10.5486 17.535L10.5457 17.5345L10.5442 17.534L10.5428 17.5336L10.5398 17.5326L10.5345 17.5312L10.5325 17.5307H10.5321C10.5286 17.5298 10.5252 17.5288 10.5213 17.5278H10.5208L10.5194 17.5274L10.5135 17.5259L10.5106 17.5255L10.5092 17.525L10.5077 17.5245L10.5048 17.5236L10.4989 17.5221L10.4975 17.5217H10.497C10.4936 17.5207 10.4902 17.5198 10.4863 17.5188H10.4858L10.4838 17.5183L10.4785 17.5169L10.4755 17.516L10.4741 17.5155L10.4726 17.515L10.4697 17.514L10.4638 17.5126L10.4624 17.5121H10.4619C10.4585 17.5112 10.4551 17.5102 10.4512 17.5093H10.4507L10.4487 17.5088L10.4434 17.5074L10.4405 17.5064L10.439 17.506L10.4375 17.5055L10.4351 17.505L10.4288 17.5031L10.4273 17.5026H10.4268C10.4234 17.5017 10.42 17.5007 10.4161 17.4998H10.4156L10.4137 17.4993L10.4088 17.4979L10.4054 17.4969L10.4039 17.4964L10.4025 17.496L10.4 17.4955L10.3937 17.4936L10.3922 17.4931H10.3917C10.3883 17.4922 10.3849 17.4912 10.381 17.4903H10.38L10.3781 17.4898L10.3732 17.4884L10.3698 17.4874L10.3684 17.4869L10.3669 17.4864L10.3645 17.486L10.3576 17.4841L10.3567 17.4836C10.3532 17.4826 10.3498 17.4817 10.3459 17.4807L10.345 17.4803L10.343 17.4798L10.3386 17.4784L10.3352 17.4774L10.3333 17.4769L10.3318 17.4765L10.3299 17.476L10.3226 17.4736H10.3216C10.3182 17.4726 10.3148 17.4717 10.3109 17.4707L10.3099 17.4703L10.3079 17.4698L10.3036 17.4684L10.3001 17.4674L10.2982 17.4669L10.2972 17.4665L10.2953 17.466L10.2875 17.4636H10.287C10.2836 17.4627 10.2802 17.4617 10.2768 17.4603L10.2758 17.4598L10.2738 17.4593L10.2694 17.4579L10.2656 17.4569L10.2636 17.4565L10.2626 17.456L10.2607 17.4555L10.2524 17.4531C10.249 17.4522 10.2456 17.4512 10.2422 17.4498L10.2412 17.4493L10.2392 17.4489L10.2353 17.4474L10.2314 17.446L10.2295 17.4455L10.2285 17.445C10.2217 17.4427 10.2149 17.4408 10.2076 17.4384L10.2066 17.4379L10.2047 17.4374L10.2008 17.436L10.1969 17.4346L10.1949 17.4341L10.1939 17.4336C10.1905 17.4327 10.1871 17.4312 10.1837 17.4303L10.1754 17.4274L10.1735 17.427L10.1725 17.4265L10.1705 17.426L10.1666 17.4246L10.1623 17.4232L10.1603 17.4227L10.1593 17.4222C10.1559 17.4213 10.1525 17.4198 10.1491 17.4189H10.1486L10.1408 17.4165L10.1389 17.416L10.1379 17.4155L10.1364 17.4151L10.133 17.4141L10.1286 17.4127L10.1267 17.4122L10.1257 17.4117C10.1223 17.4108 10.1189 17.4094 10.1155 17.4084H10.115L10.1077 17.406L10.1057 17.4051L10.1048 17.4046L10.1033 17.4041L10.0999 17.4032L10.0955 17.4017L10.0936 17.4013L10.0926 17.4008C10.0892 17.3998 10.0858 17.3984 10.0824 17.3975L10.0814 17.397L10.0746 17.3946L10.0721 17.3937L10.0707 17.3932L10.0692 17.3927L10.0658 17.3918L10.0609 17.3903L10.0595 17.3898L10.0585 17.3894C10.0551 17.3879 10.0517 17.387 10.0483 17.386H10.0478L10.0468 17.3856L10.0405 17.3832L10.038 17.3822L10.0366 17.3818L10.0351 17.3813L10.0322 17.3803L10.0273 17.3784L10.0258 17.378H10.0254C10.0219 17.3765 10.0185 17.3756 10.0151 17.3741H10.0146L10.0132 17.3737L10.0068 17.3713L10.0044 17.3703L10.0029 17.3699L10.0015 17.3694L9.99856 17.3684L9.9932 17.3665L9.99174 17.3661H9.99126C9.98784 17.3646 9.98444 17.3637 9.98102 17.3622H9.98054L9.97908 17.3618L9.97323 17.3599L9.97031 17.3589L9.96884 17.3584L9.96738 17.358L9.96446 17.357L9.9591 17.3551L9.95764 17.3546H9.95715C9.95374 17.3532 9.95033 17.3523 9.94692 17.3508H9.94643L9.94497 17.3504L9.93961 17.3484L9.93669 17.3475L9.93523 17.347L9.93377 17.3465L9.93084 17.3456L9.925 17.3437L9.92353 17.3432H9.92305C9.91964 17.3418 9.91623 17.3408 9.91282 17.3394H9.91233L9.91087 17.3389L9.90551 17.337L9.90258 17.3361L9.90112 17.3356L9.89966 17.3351L9.89723 17.3342L9.89138 17.3318L9.88992 17.3313H9.88943C9.88602 17.3299 9.88261 17.3289 9.8792 17.3275H9.87871L9.87725 17.327L9.87189 17.3251L9.86897 17.3237L9.86751 17.3232L9.86604 17.3228L9.86361 17.3218L9.85727 17.3194L9.85679 17.318H9.8563C9.85289 17.3166 9.84948 17.3151 9.84607 17.3142H9.84558L9.84412 17.3137L9.83925 17.3118L9.83584 17.3104L9.83438 17.3099L9.8334 17.3094L9.83097 17.3085L9.82414 17.3056L9.82317 17.3051C9.81976 17.3037 9.81635 17.3023 9.81294 17.3013L9.81245 17.3009L9.81099 17.3004L9.80612 17.2985L9.80271 17.2971L9.80125 17.2966L9.80027 17.2961L9.79784 17.2952L9.79101 17.2923L9.79053 17.2918C9.78712 17.2904 9.78371 17.289 9.7803 17.2875L9.77932 17.2871L9.77786 17.2866L9.77348 17.2847L9.77006 17.2833L9.7686 17.2828L9.76763 17.2823L9.76568 17.2814L9.75837 17.2785H9.75788C9.75447 17.2771 9.75106 17.2756 9.74765 17.2742L9.74668 17.2737L9.74522 17.2733L9.74083 17.2714L9.73742 17.2699L9.73596 17.2695L9.73499 17.269C9.72817 17.2661 9.72134 17.2633 9.71501 17.2609L9.71404 17.2604L9.71257 17.2599L9.70819 17.258L9.70429 17.2566L9.70283 17.2561L9.70186 17.2557C9.69504 17.2528 9.6887 17.2499 9.68188 17.2471L9.68091 17.2466L9.67944 17.2461L9.67555 17.2442L9.67165 17.2423L9.67019 17.2419L9.66921 17.2414C9.66239 17.2385 9.65606 17.2357 9.64924 17.2328L9.64826 17.2323L9.6468 17.2319L9.6429 17.23L9.63901 17.2281L9.63755 17.2276L9.63657 17.2271C9.62975 17.2242 9.62342 17.2214 9.6166 17.2185L9.61562 17.2181H9.61318L9.60929 17.2166L9.6049 17.2147L9.60344 17.2143L9.60247 17.2138C9.59906 17.2124 9.59565 17.2109 9.59224 17.2095L9.58444 17.2062L9.58249 17.2052L9.58152 17.2047L9.58006 17.2043L9.57664 17.2028L9.57226 17.2009L9.5708 17.2005L9.57031 17.2C9.5669 17.1986 9.56349 17.1971 9.56008 17.1957H9.55959L9.55228 17.1924L9.54985 17.1914L9.54887 17.1909L9.54741 17.1905L9.544 17.189L9.53913 17.1871L9.53767 17.1867L9.53718 17.1862C9.53377 17.1848 9.53036 17.1833 9.52695 17.1814L9.52646 17.1809L9.51964 17.1781L9.51721 17.1771L9.51623 17.1767L9.51477 17.1762L9.51136 17.1748L9.50649 17.1724L9.50503 17.1719L9.50454 17.1714C9.50113 17.17 9.49772 17.1686 9.49431 17.1667L9.49382 17.1662L9.48749 17.1633L9.48505 17.1624L9.48408 17.1619L9.48261 17.1614L9.47969 17.16L9.47482 17.1576L9.47336 17.1572L9.47287 17.1567C9.46946 17.1552 9.46605 17.1533 9.46264 17.1519L9.46166 17.1514L9.45533 17.1486L9.4529 17.1472L9.45192 17.1467L9.45046 17.1462L9.44754 17.1448L9.44218 17.1424L9.4412 17.1419H9.44071C9.4373 17.1405 9.43389 17.1386 9.43097 17.1372H9.43048L9.42951 17.1367L9.42366 17.1338L9.42074 17.1324L9.41976 17.1319L9.41879 17.1315L9.41587 17.13L9.41051 17.1272L9.40953 17.1267H9.40905C9.40564 17.1253 9.40223 17.1234 9.3993 17.1219H9.39882L9.39784 17.1215L9.39248 17.1186L9.38956 17.1172L9.38858 17.1167L9.38761 17.1162L9.38469 17.1148L9.37884 17.1119L9.37787 17.1115H9.37738C9.37397 17.11 9.37056 17.1081 9.36763 17.1067H9.36715L9.36617 17.1062L9.36081 17.1034L9.35789 17.102L9.35692 17.1015L9.35594 17.101L9.35351 17.0996L9.34717 17.0967L9.3462 17.0962C9.34279 17.0948 9.33938 17.0929 9.33645 17.0915H9.33597L9.33499 17.091L9.33012 17.0886L9.3272 17.0872L9.32622 17.0867L9.32525 17.0862L9.32281 17.0848L9.31648 17.0815L9.31599 17.081C9.31258 17.0791 9.30917 17.0777 9.30625 17.0758L9.30576 17.0753L9.30478 17.0748L9.29991 17.0724L9.2965 17.0705L9.29553 17.0701L9.29455 17.0696L9.29212 17.0682L9.2853 17.0648H9.28481C9.2814 17.0629 9.27799 17.0615 9.27506 17.0596L9.27458 17.0591L9.2736 17.0587L9.26873 17.0563L9.26532 17.0544L9.26386 17.0539L9.26289 17.0534C9.25655 17.0501 9.24973 17.0468 9.2434 17.0434L9.24291 17.0429L9.24194 17.0425L9.23755 17.0401L9.23414 17.0382L9.23317 17.0377L9.23219 17.0372C9.22586 17.0339 9.21952 17.0306 9.2127 17.0268L9.21222 17.0263L9.21124 17.0258L9.20686 17.0234L9.20296 17.0215L9.20198 17.0211L9.20101 17.0206C9.19468 17.0172 9.18786 17.0134 9.18152 17.0101L9.18104 17.0096L9.18006 17.0092L9.17616 17.0068L9.17227 17.0049L9.17129 17.0044L9.17032 17.0039C9.16398 17.0006 9.15765 16.9968 9.15083 16.9935L9.15034 16.993L9.14937 16.9925L9.14547 16.9901L9.14157 16.9877L9.1406 16.9873L9.14011 16.9868C9.13378 16.9835 9.12744 16.9797 9.12111 16.9763L9.12013 16.9758L9.11916 16.9754L9.11526 16.9735L9.11088 16.9711L9.1099 16.9706L9.10942 16.9701C9.10308 16.9668 9.09675 16.963 9.09042 16.9592L9.08944 16.9587L9.08847 16.9582L9.08457 16.9563L9.08018 16.954L9.07921 16.9535L9.07872 16.953C9.07239 16.9492 9.06605 16.9459 9.05972 16.9421L9.05875 16.9416L9.05777 16.9411L9.05436 16.9392L9.04998 16.9364L9.049 16.9359L9.04852 16.9354C9.04218 16.9316 9.03585 16.9283 9.02951 16.9245L9.02854 16.924L9.02757 16.9235L9.02416 16.9216L9.01928 16.9187L9.01831 16.9183L9.01782 16.9178C9.01441 16.9159 9.01149 16.914 9.00808 16.9121L9.00126 16.9083L8.99882 16.9068L8.99785 16.9064L8.99687 16.9059L8.99346 16.904L8.98859 16.9011L8.98761 16.9007H8.98713C8.98372 16.8988 8.98079 16.8969 8.97738 16.895L8.97105 16.8911L8.96861 16.8897L8.96764 16.8892L8.96666 16.8888L8.96374 16.8869L8.95838 16.8835L8.95741 16.8831H8.95692C8.95351 16.8812 8.95059 16.8792 8.94718 16.8773H8.94669L8.94036 16.8735L8.93743 16.8721L8.93646 16.8716L8.93548 16.8712L8.93256 16.8693L8.9272 16.8659L8.92671 16.8654C8.9233 16.8635 8.92038 16.8616 8.91697 16.8597L8.91648 16.8593L8.91064 16.8559L8.90771 16.854L8.90674 16.8536L8.90576 16.8531L8.90284 16.8512L8.89699 16.8478L8.89651 16.8474C8.8931 16.8455 8.89017 16.8436 8.88676 16.8417L8.88628 16.8412L8.88092 16.8378L8.87799 16.8359L8.87702 16.8355L8.87604 16.835L8.87312 16.8331L8.86728 16.8293H8.86679C8.86338 16.8274 8.86045 16.8255 8.85704 16.8231H8.85656L8.85607 16.8226L8.85071 16.8193L8.84779 16.8174L8.84681 16.8169L8.84584 16.8164L8.8434 16.815L8.83707 16.8112C8.83366 16.8093 8.83073 16.8069 8.82732 16.805H8.82684L8.82635 16.8045L8.82148 16.8012L8.81807 16.7993L8.81709 16.7988L8.81612 16.7984C8.80978 16.7945 8.80345 16.7903 8.7976 16.7865H8.79712L8.79614 16.786L8.79127 16.7826L8.78786 16.7803L8.78689 16.7798L8.7864 16.7793C8.78007 16.7755 8.77373 16.7712 8.76789 16.7674H8.7674L8.76642 16.7669L8.76155 16.7641L8.75814 16.7617L8.75717 16.7612L8.75668 16.7608C8.75035 16.757 8.7445 16.7527 8.73817 16.7484L8.73768 16.7479L8.7367 16.7474L8.73232 16.7446L8.72842 16.7422L8.72745 16.7417L8.72696 16.7412C8.72063 16.737 8.71478 16.7332 8.70845 16.7289L8.70796 16.7284L8.70698 16.7279L8.7026 16.7251L8.6987 16.7227L8.69773 16.7222L8.69724 16.7217C8.69091 16.7175 8.68506 16.7136 8.67873 16.7094L8.67824 16.7089L8.67727 16.7084L8.67337 16.7056L8.66947 16.7027L8.6685 16.7022L8.66801 16.7018C8.66167 16.6975 8.65583 16.6932 8.64949 16.6894L8.64901 16.6889L8.64803 16.6884L8.64414 16.6856L8.63975 16.6827L8.63878 16.6822L8.63829 16.6818C8.63196 16.6775 8.62611 16.6732 8.61978 16.6689L8.61929 16.6684L8.61831 16.668L8.61442 16.6651L8.61003 16.6623L8.60954 16.6618L8.60906 16.6613C8.60272 16.657 8.59688 16.6527 8.59054 16.6485L8.59006 16.648L8.58908 16.6475L8.58518 16.6451L8.5808 16.6418L8.58031 16.6413H8.57982C8.57349 16.637 8.56764 16.6328 8.5618 16.6285L8.56131 16.628L8.56034 16.6275L8.55693 16.6251L8.55205 16.6218L8.55157 16.6213H8.55108C8.54523 16.6171 8.5389 16.6128 8.53305 16.6085L8.53257 16.608L8.53208 16.6075L8.52867 16.6052L8.5238 16.6018L8.52331 16.6013C8.51746 16.5971 8.51113 16.5928 8.50528 16.588L8.5048 16.5875L8.50431 16.5871L8.5009 16.5847L8.49554 16.5809L8.49505 16.5804C8.4892 16.5761 8.48287 16.5714 8.47702 16.5671L8.47654 16.5666L8.47605 16.5661L8.47313 16.5638L8.46777 16.5599C8.46192 16.5557 8.45559 16.5509 8.44974 16.5466L8.44925 16.5461L8.44877 16.5457L8.44584 16.5433L8.44 16.539C8.43707 16.5366 8.43366 16.5342 8.43074 16.5319L8.42489 16.5276L8.42197 16.5252L8.42148 16.5247L8.421 16.5243C8.41515 16.5195 8.40882 16.5152 8.40297 16.5105L8.39761 16.5062L8.39469 16.5038L8.3942 16.5033L8.39371 16.5028C8.38787 16.4981 8.38202 16.4938 8.37569 16.489L8.37033 16.4848L8.36692 16.4824L8.36643 16.4819L8.36594 16.4814C8.3601 16.4767 8.35425 16.4724 8.34792 16.4676L8.34304 16.4638L8.33963 16.4614L8.33915 16.461L8.33866 16.4605C8.33281 16.4557 8.32697 16.451 8.32112 16.4467H8.32063L8.31576 16.4429L8.31235 16.44L8.31186 16.4396L8.31137 16.4391C8.30553 16.4343 8.29968 16.4296 8.29384 16.4248L8.29335 16.4243L8.28848 16.4205L8.28507 16.4177L8.28458 16.4172L8.28409 16.4167C8.27824 16.412 8.2724 16.4072 8.26655 16.4024L8.26606 16.402L8.26168 16.3982L8.25778 16.3953L8.2573 16.3948L8.25681 16.3943C8.25096 16.3896 8.24512 16.3848 8.23927 16.3801L8.23878 16.3796L8.2344 16.3763L8.2305 16.3729L8.23001 16.3725H8.22952C8.22368 16.3677 8.21783 16.3629 8.21199 16.3582L8.2115 16.3577L8.2076 16.3544L8.2037 16.351L8.20322 16.3506C8.19737 16.3458 8.19152 16.3411 8.18568 16.3358H8.18519L8.1847 16.3353L8.1808 16.332L8.17642 16.3282L8.17593 16.3277C8.17009 16.323 8.16424 16.3177 8.15839 16.313H8.15791L8.15742 16.3125L8.15352 16.3092L8.14914 16.3054H8.14865C8.1428 16.3006 8.13696 16.2954 8.1316 16.2906H8.13111L8.13062 16.2901L8.12721 16.2868L8.12283 16.283C8.11698 16.2782 8.11113 16.273 8.10577 16.2682L8.10529 16.2678L8.1048 16.2673L8.10139 16.2644L8.09652 16.2602C8.09067 16.2549 8.08531 16.2502 8.07947 16.2449L8.07898 16.2444L8.07849 16.244C8.07021 16.2364 8.06144 16.2287 8.05316 16.2211L8.05267 16.2207L8.05218 16.2202C8.0439 16.2126 8.03513 16.205 8.02685 16.1973L8.02636 16.1969L8.02587 16.1964C8.01759 16.1888 8.00931 16.1812 8.00054 16.1735L8.00005 16.1731L7.99956 16.1726C7.99128 16.165 7.983 16.1574 7.97472 16.1493L7.97423 16.1488L7.97374 16.1483C7.96546 16.1407 7.95718 16.1326 7.94889 16.125L7.94841 16.1245V16.1241C7.94012 16.1164 7.93184 16.1084 7.92356 16.1007L7.92307 16.1003H7.92259C7.9143 16.0922 7.90602 16.0846 7.89774 16.0765V16.076C7.88946 16.0679 7.88117 16.0603 7.87289 16.0522C7.86461 16.0441 7.85633 16.036 7.84853 16.0279C7.84317 16.0227 7.83781 16.017 7.83197 16.0118L7.82758 16.0075L7.82368 16.0037C7.81832 15.9984 7.81296 15.9927 7.80712 15.9875L7.80322 15.9832L7.79932 15.9794C7.79396 15.9742 7.7886 15.9685 7.78325 15.9627L7.77935 15.9589L7.77545 15.9546C7.77009 15.9489 7.76473 15.9437 7.75937 15.938C7.75109 15.9299 7.74329 15.9213 7.7355 15.9132C7.7277 15.9047 7.71942 15.8966 7.71163 15.888C7.70383 15.8795 7.69555 15.8714 7.68775 15.8628C7.67996 15.8542 7.67216 15.8462 7.66437 15.8376C7.65657 15.829 7.64878 15.8205 7.64098 15.8124C7.63319 15.8038 7.62539 15.7952 7.6176 15.7867C7.6098 15.7781 7.60201 15.7695 7.5947 15.761C7.5869 15.7524 7.57911 15.7438 7.5718 15.7353C7.564 15.7267 7.55669 15.7181 7.5489 15.7091C7.53769 15.6939 7.5299 15.6853 7.52259 15.6763ZM21.5 8.07152L20.2333 5.92872L17.6998 7.35725L18.9665 9.50006L21.5 8.07152ZM5.03346 9.50006L6.30019 7.35725L3.76673 5.92872L2.5 8.07152L5.03346 9.50006ZM10.7333 2H13.2667V4.85707H10.7333V2Z"/>
</svg>
