<svg width="24" height="24" viewBox="0 0 24 24" fill="none" xmlns="http://www.w3.org/2000/svg">
<path fill-rule="evenodd" clip-rule="evenodd" d="M2 12C2 6.47715 6.47715 2 12 2C17.5 2 22 6.47 22 12C22 14.6522 20.9464 17.1957 19.0711 19.0711C17.1957 20.9464 14.6522 22 12 22C9.34784 22 6.8043 20.9464 4.92893 19.0711C3.05357 17.1957 2 14.6522 2 12ZM15.07 11.25L14.17 12.17C13.45 12.89 13 13.5 13 15H11V14.5C11 13.39 11.45 12.39 12.17 11.67L13.41 10.41C13.78 10.05 14 9.55 14 9C14 7.89 13.1 7 12 7C10.8954 7 9.99997 7.89543 9.99997 9H7.99997C7.99997 6.79086 9.79083 5 12 5C14.2091 5 16 6.79086 16 9C16 9.88 15.64 10.67 15.07 11.25ZM13 19H11V17H13V19Z"/>
</svg>
