<svg width="24" height="24" viewBox="0 0 24 24" xmlns="http://www.w3.org/2000/svg">

<path d="M8.31579 14.9219C8.31579 16.25 9.21053 17.4187 10.4211 17.8438V12C9.21053 12.425 8.31579 13.5938 8.31579 14.9219ZM7.52632 9.875C6.21053 9.875 5.05263 10.7781 4.63158 12H10.4211C10 10.7781 8.84211 9.875 7.52632 9.875ZM12.5263 9.07812C12.5263 7.75 11.6316 6.58125 10.4211 6.15625V12C11.6316 11.575 12.5263 10.4062 12.5263 9.07812ZM2 4V20H22V4H2ZM10.4211 18.9062C6.63158 18.9062 3.57895 15.825 3.57895 12C3.57895 8.175 6.63158 5.09375 10.4211 5.09375C14.2105 5.09375 17.2632 8.175 17.2632 12C17.2632 15.825 14.2105 18.9062 10.4211 18.9062ZM13.3158 14.125C14.6316 14.125 15.7895 13.2219 16.2105 12H10.4211C10.8421 13.2219 12 14.125 13.3158 14.125Z"/>
</svg>
