<svg width="24" height="24" viewBox="0 0 24 24" fill="none" xmlns="http://www.w3.org/2000/svg">
<path d="M12.0001 2.00037L4.00006 5.33339C4.00006 9.08069 4.00006 22 4.00006 22C4.00006 22 8.63124 22 10.2223 22V17.8333H13.7778V22C15.3689 22 20.0001 22 20.0001 22C20.0001 22 20.0001 9.0807 20.0001 5.33339L12.0001 2.00037ZM8.4445 15.3334H6.66673V12.8334H8.4445V15.3334ZM8.4445 10.3334H6.66673V7.83338H8.4445V10.3334ZM12.8889 15.3334H11.1112V12.8334H12.8889V15.3334ZM12.8889 10.3334H11.1112V7.83338H12.8889V10.3334ZM17.3334 15.3334H15.5556V12.8334H17.3334V15.3334ZM17.3334 10.3334H15.5556V7.83338H17.3334V10.3334Z"/>
</svg>
