<svg width="24" height="24" viewBox="0 0 24 24" fill="none" xmlns="http://www.w3.org/2000/svg">
<path d="M11.2348 9.92873L9.27493 6.49889C9.05222 6.14254 8.78496 5.96437 8.47315 5.96437H5.53329C5.17694 5.96437 4.99877 6.23163 5.17694 6.58797L7.13685 9.92873C7.13685 9.97327 7.13685 9.97327 7.13685 9.97327L4.06335 15.363C3.88518 15.6748 4.1079 15.9866 4.4197 15.9866H7.31502C7.62683 15.9866 7.89409 15.8085 8.11681 15.4521C10.1213 11.9332 11.1458 10.1069 11.2348 9.92873ZM21.0344 2.66815C21.2126 2.3118 21.0344 2 20.6781 2H17.7382C17.4264 2 17.1591 2.22272 16.9364 2.57906C12.7939 9.88419 10.6558 13.6704 10.5222 13.9376L14.6201 21.4209C14.7983 21.8218 15.0656 22 15.4219 22H18.3173C18.7181 22 18.8963 21.6882 18.7181 21.3318L14.6201 13.9376L21.0344 2.66815Z"/>
</svg>
