<svg width="24" height="24" viewBox="0 0 24 24" xmlns="http://www.w3.org/2000/svg">

<path fill-rule="evenodd" clip-rule="evenodd" d="M2.91819 4.90452L4.20001 3.60754L20.3182 19.8197L19.0364 21.1075C17.5437 19.6079 16.2094 18.2667 14.9468 16.9974C14.0153 17.2909 13.0257 17.4712 12 17.4712C6.47619 17.4712 2 12.2439 2 12.2439C2 12.2439 3.82076 10.1176 6.57282 8.57728C5.45142 7.45001 4.24886 6.24143 2.91819 4.90452ZM9.56528 11.5859C9.50724 11.7961 9.4762 12.0168 9.4762 12.2439C9.4762 13.622 10.619 14.7625 12 14.7625C12.2209 14.7625 12.4357 14.7333 12.6407 14.6786C12.21 14.2455 11.7816 13.8147 11.3515 13.3821C10.7626 12.7899 10.1706 12.1946 9.56528 11.5859Z"/>
<path d="M10.2538 7.18589L12.9722 9.92305C13.5857 10.1831 14.0794 10.6798 14.3345 11.2947L18.3587 15.3467C20.5826 13.8991 22 12.2439 22 12.2439C22 12.2439 17.5238 7.01663 12 7.01663C11.4043 7.01663 10.8208 7.07742 10.2538 7.18589Z"/>
</svg>
