<svg width="128" height="26" viewBox="0 0 128 26" xmlns="http://www.w3.org/2000/svg">
<path fill-rule="evenodd" clip-rule="evenodd" d="M47.7795 4.30358H53.3759C53.3759 4.30358 57.5782 4.40545 57.5782 7.84936C57.5782 11.8499 53.3759 11.7014 53.3759 11.7014H43.5032V8.6295H53.032C53.032 8.6295 53.8129 8.6295 53.8129 7.97489C53.8129 7.21841 53.0341 7.21841 53.0341 7.21841L47.1286 7.2263C47.1286 7.2263 43.2304 7.30845 43.2304 3.64765C43.2304 0.086755 47.1286 0 47.1286 0L57.0659 0.00591512V3.01342H47.7795C47.7795 3.01342 46.9104 3.01342 46.9104 3.64765C46.9104 4.30358 47.7795 4.30358 47.7795 4.30358ZM68.5287 10.4857C68.3759 10.8682 68.3312 11.6017 68.3312 11.6017C68.3312 11.6017 68.2651 10.8577 68.1145 10.4857L66.2584 5.84893L60.2008 5.84696L60.1951 17.0515L64.0827 17.0502V10.3858C64.0827 10.3858 64.0827 10.7808 64.2482 11.1377L67.0017 17.0515H69.66L72.4113 11.001C72.5747 10.6415 72.5747 10.2465 72.5747 10.2465V11.0207V17.0502H76.4814V5.84827L70.4011 5.84893L68.5287 10.4857ZM20.1033 17.0503H24.6104V5.84841L20.1033 5.84709V17.0503ZM32.9574 12.5081L39.72 12.5088V9.98695H32.9574V8.59887H41.1887V5.84834H28.6855V17.0503H41.517V14.0631H32.9567L32.9574 12.5081ZM9.16069 13.4175C9.16069 13.4175 9.16069 13.0218 9.34757 12.6695L13.007 5.85071L18.3896 5.87765L11.8786 17.0737L6.46123 17.0645L0 5.84742H5.42308L8.96954 12.6597C9.16069 13.0218 9.16069 13.4175 9.16069 13.4175ZM53.3759 17.6932H47.7795C47.7795 17.6932 46.9104 17.6932 46.9104 17.0359C46.9104 16.4024 47.7795 16.4024 47.7795 16.4024H57.0659V13.3646L47.1286 13.3883C47.1286 13.3883 43.2304 13.4757 43.2304 17.0359C43.2304 20.698 47.1286 20.629 47.1286 20.629L53.0341 20.608C53.0341 20.608 53.8129 20.608 53.8129 21.4171C53.8129 22.0184 53.032 22.0184 53.032 22.0184H43.5032V25.0903L53.3759 25.091C53.3759 25.091 57.5782 25.2395 57.5782 21.2376C57.5782 17.7937 53.3759 17.6932 53.3759 17.6932ZM85.8975 9.80082C85.7099 10.1465 84.6213 12.1432 84.6213 12.1432L87.5588 12.155L86.2769 9.80148C86.0872 9.45446 86.0872 9.0588 86.0872 9.0588C86.0872 9.0588 86.0872 9.45446 85.8975 9.80082ZM83.7068 5.84887H88.4669L94.5913 17.0514H94.1778L94.1792 17.0521H90.0174V17.0514H89.8305L88.6986 14.9792H83.4759L82.3439 17.0514H77.5824L83.7068 5.84887ZM105.865 11.9985C105.865 11.9985 105.865 11.6028 105.585 11.3018L100.53 5.84808L96.0473 5.84742V17.0506H100.53V10.9002C100.53 10.9002 100.53 11.2946 100.798 11.5949L105.667 17.052L110.119 17.0506V5.84808L105.865 5.84742V11.9985ZM123.746 12.0001V5.84972H128V17.0516L123.548 17.0536L118.679 11.5966C118.412 11.2962 118.412 10.9019 118.412 10.9019V17.0516H113.929V5.84972H118.412L123.467 11.3035C123.746 11.6045 123.746 12.0001 123.746 12.0001Z"/>
</svg>
