<svg width="24" height="24" viewBox="0 0 24 24" xmlns="http://www.w3.org/2000/svg">

<path d="M19 9.00158H16.375V7.4675C16.375 5.23065 14.7037 3.23377 12.4288 3.01951C9.82125 2.77954 7.625 4.78499 7.625 7.28752V9.00158H5V21H19V9.00158ZM12 16.7149C11.0375 16.7149 10.25 15.9435 10.25 15.0008C10.25 14.0581 11.0375 13.2867 12 13.2867C12.9625 13.2867 13.75 14.0581 13.75 15.0008C13.75 15.9435 12.9625 16.7149 12 16.7149ZM9.375 9.00158V7.28752C9.375 5.86485 10.5475 4.71643 12 4.71643C13.4525 4.71643 14.625 5.86485 14.625 7.28752V9.00158H9.375Z"/>
</svg>
