<svg width="32" height="29" viewBox="0 0 32 29" xmlns="http://www.w3.org/2000/svg">
<path d="M18.7001 21.026C18.5052 21.2856 18.1966 21.4344 17.8722 21.4253C17.5478 21.4161 17.248 21.2501 17.0681 20.98L12.1301 13.572L10.9901 15.478C10.8095 15.7793 10.4842 15.9637 10.1331 15.964H3.95605C8.32605 22.598 16.0001 28.928 16.0001 28.928C16.0001 28.928 23.6741 22.598 28.0441 15.964H22.5001L18.7001 21.026Z"/>
<path d="M30.18 11.964C30.682 10.798 30.9602 9.54789 31 8.279C31.0485 4.64767 28.6939 1.42031 25.2211 0.358087C21.7482 -0.704138 17.9911 0.65385 16 3.691C14.4805 1.41482 11.9366 0.034001 9.2 0C4.65139 0.0264391 0.982827 3.73035 1 8.279C1.04017 9.54795 1.31868 10.798 1.821 11.964H0V13.964H9.566L12.045 9.833L17.952 18.694L21.5 13.964H32V11.964H30.18Z"/>
</svg>
