<svg width="24" height="24" viewBox="0 0 24 24" fill="none" xmlns="http://www.w3.org/2000/svg">
<g clip-path="url(#clip0)">
<path d="M8.5823 6.89189C8.5823 5.54919 7.48866 4.45946 6.14113 4.45946C4.7936 4.45946 3.69995 5.54919 3.69995 6.89189C3.69995 8.23459 4.78872 9.31946 6.13136 9.32432L3.69995 10.7838V21H8.5823V10.7838L6.15089 9.32432C7.49354 9.31946 8.5823 8.23459 8.5823 6.89189ZM9.55877 21H14.4411V9.32432L12 7.86486L9.55877 9.32432V21ZM20.3 12.7395C20.3 11.3968 19.2063 10.307 17.8588 10.307C16.5112 10.307 15.4176 11.3968 15.4176 12.7395C15.4176 14.0822 16.5112 15.1719 17.8588 15.1719C19.2063 15.1719 20.3 14.0822 20.3 12.7395ZM15.4176 16.6314V21H20.3V16.6314L17.8588 15.1719L15.4176 16.6314ZM14.4411 5.43243C14.4411 4.08973 13.3475 3 12 3C10.6524 3 9.55877 4.08973 9.55877 5.43243C9.55877 6.77514 10.6524 7.86486 12 7.86486C13.3475 7.86486 14.4411 6.77514 14.4411 5.43243Z"/>
</g>
<defs>
<clipPath id="clip0">
<rect width="16.6" height="18" fill="white" transform="translate(3.69995 3)"/>
</clipPath>
</defs>
</svg>
