<svg width="24" height="24" viewBox="0 0 24 24" fill="none" xmlns="http://www.w3.org/2000/svg">
<path fill-rule="evenodd" clip-rule="evenodd" d="M7.99352 7.41651C7.80039 8.11513 7.69739 8.85187 7.69739 9.61303C7.69739 13.4794 10.362 16.7068 13.9112 17.4753C12.773 19.3459 10.7483 20.5947 8.44223 20.6C4.88684 20.6078 2 17.657 2 14.0144C2 10.5256 4.64699 7.66029 7.99352 7.41651ZM15.5582 3.00002C19.1136 2.9922 22 5.94304 22 9.58567C22 13.2283 19.1136 16.1918 15.5582 16.1997C12.0029 16.2075 9.11649 13.2566 9.11649 9.614C9.11649 5.97138 12.0029 3.00783 15.5582 3.00002Z"/>
</svg>
