<svg width="24" height="24" viewBox="0 0 24 24" fill="none" xmlns="http://www.w3.org/2000/svg">
<path d="M8.96668 10.0629V6.85719C8.96668 5.67433 10.012 4.71433 11.3 4.71433C12.588 4.71433 13.6333 5.67433 13.6333 6.85719V10.0629C14.7627 9.36861 15.5 8.19434 15.5 6.85719C15.5 4.72291 13.624 3 11.3 3C8.97601 3 7.1 4.72291 7.1 6.85719C7.1 8.19434 7.83734 9.36861 8.96668 10.0629ZM18.1507 14.0314L13.9133 12.0943C13.7547 12.0343 13.5867 12.0001 13.4094 12.0001H12.7V6.85719C12.7 6.14576 12.0747 5.57137 11.3 5.57137C10.5253 5.57137 9.9 6.14576 9.9 6.85719V16.0628L6.69867 15.4457C6.624 15.4372 6.55868 15.42 6.47468 15.42C6.18534 15.42 5.92399 15.5314 5.73732 15.7029L5 16.3886L9.61068 20.6229C9.86268 20.8543 10.2174 21 10.6 21H16.9373C17.6373 21 18.1787 20.5286 18.2814 19.9029L18.9813 15.3857C18.9907 15.3257 19 15.2657 19 15.2143C19 14.6828 18.6454 14.22 18.1507 14.0314Z"/>
</svg>
