<svg width="23" height="31" viewBox="0 0 23 31" xmlns="http://www.w3.org/2000/svg">
<path d="M10 4C9.44775 4 9 3.55225 9 3V1C9 0.44775 9.44775 0 10 0C10.5523 0 11 0.44775 11 1V3C11 3.55225 10.5523 4 10 4Z"/>
<path d="M14.9497 6.05029C14.6938 6.05029 14.438 5.95263 14.2427 5.75732C13.8521 5.3667 13.8521 4.73388 14.2427 4.34326L15.6567 2.9292C16.0474 2.53858 16.6802 2.53858 17.0708 2.9292C17.4614 3.31982 17.4614 3.95264 17.0708 4.34326L15.6567 5.75732C15.4614 5.95264 15.2056 6.05029 14.9497 6.05029Z"/>
<path d="M19 11H17C16.4477 11 16 10.5523 16 10C16 9.44775 16.4477 9 17 9H19C19.5522 9 20 9.44775 20 10C20 10.5523 19.5522 11 19 11Z"/>
<path d="M5.05029 6.05029C4.79443 6.05029 4.53857 5.95263 4.34326 5.75732L2.9292 4.34326C2.53858 3.95264 2.53858 3.31982 2.9292 2.9292C3.31982 2.53858 3.95264 2.53858 4.34326 2.9292L5.75732 4.34326C6.14794 4.73388 6.14794 5.3667 5.75732 5.75732C5.56201 5.95264 5.30615 6.05029 5.05029 6.05029Z"/>
<path d="M3 11H1C0.44775 11 0 10.5523 0 10C0 9.44775 0.44775 9 1 9H3C3.55225 9 4 9.44775 4 10C4 10.5523 3.55225 11 3 11Z"/>
<path d="M20.1276 17.4777L12 16V9C12 7.89545 11.1045 7 10 7C8.89545 7 8 7.89545 8 9V22H7V19H6C4.89545 19 4 19.8954 4 21V23.8953C4 25.2578 4.46368 26.5797 5.31482 27.6436L8 31H21L22.5561 20.8855C22.8032 19.2794 21.7265 17.7684 20.1276 17.4777Z"/>
</svg>
