<svg width="24" height="24" viewBox="0 0 24 24" xmlns="http://www.w3.org/2000/svg">
<path d="M14 13H10C9.448 13 9 13.448 9 14V23C9 23.552 9.448 24 10 24H14C14.552 24 15 23.552 15 23V14C15 13.448 14.552 13 14 13Z"/>
<path d="M5 17H1C0.448 17 0 17.448 0 18V23C0 23.552 0.448 24 1 24H5C5.552 24 6 23.552 6 23V18C6 17.448 5.552 17 5 17Z"/>
<path d="M23 9H19C18.448 9 18 9.448 18 10V23C18 23.552 18.448 24 19 24H23C23.552 24 24 23.552 24 23V10C24 9.448 23.552 9 23 9Z"/>
<path d="M12.707 9.707L19 3.414V7H21V1C21 0.448 20.552 0 20 0H14V2H17.586L12 7.586L8.70697 4.293C8.31597 3.902 7.68397 3.902 7.29297 4.293L2.29297 9.293L3.70697 10.707L7.99997 6.414L11.293 9.707C11.684 10.098 12.316 10.098 12.707 9.707Z"/>
</svg>
