<svg width="24" height="24" viewBox="0 0 24 24" fill="none" xmlns="http://www.w3.org/2000/svg">
<path fill-rule="evenodd" clip-rule="evenodd" d="M7.03074 11.4776C7.29898 7.71159 9.16689 4.35228 11.9988 2C15.0643 4.53366 17 8.25214 17 12.3967C17 16.1127 15.4437 19.4924 12.9125 21.9867C15.3217 17.1136 11.9988 12.7365 11.9988 12.7365L11.9967 12.7396L11.9956 12.7411L11.994 12.7436L11.9923 12.7462L11.9902 12.7493L11.988 12.7523L11.9853 12.7564L11.9826 12.7605L11.9793 12.7651L11.9761 12.7697L11.9723 12.7753L11.9707 12.7779L11.9685 12.7809L11.9663 12.7835L11.9642 12.7866L11.962 12.7896L11.9593 12.7932L11.9571 12.7963L11.9544 12.7998L11.9522 12.8029L11.9495 12.807L11.9468 12.8106L11.9441 12.8147L11.9414 12.8182L11.9387 12.8223L11.936 12.8264L11.9327 12.831L11.93 12.8351L11.9268 12.8397L11.9241 12.8438L11.9208 12.8489L11.9181 12.8535L11.9148 12.8586L11.9116 12.8632L11.9078 12.8683L11.9046 12.8729L11.9008 12.8785L11.8975 12.8836L11.8937 12.8893L11.8905 12.8944L11.8867 12.9L11.8834 12.9051L11.8791 12.9112L11.8753 12.9168L11.871 12.923L11.8672 12.9286L11.8628 12.9352L11.859 12.9409L11.8547 12.9475L11.8509 12.9536L11.8466 12.9603L11.8428 12.9664L11.8384 12.9736L11.8341 12.9797L11.8292 12.9868L11.8249 12.993L11.82 13.0001L11.8157 13.0068L11.8108 13.0144L11.8065 13.0211L11.8016 13.0287L11.7945 13.0359L11.7897 13.0436L11.7853 13.0507L11.7799 13.0589L11.7756 13.066L11.7702 13.0742L11.7653 13.0819L11.7599 13.09L11.755 13.0977L11.7496 13.1064L11.7447 13.1141L11.7393 13.1227L11.7344 13.1304L11.729 13.1391L11.7241 13.1473L11.7187 13.1565L11.7138 13.1646L11.7078 13.1738L11.7024 13.182L11.6965 13.1917L11.691 13.2004L11.6851 13.2101L11.6829 13.2142L11.6797 13.2193L11.677 13.2234L11.6737 13.2285L11.671 13.2326L11.6677 13.2377L11.665 13.2418L11.6618 13.2469L11.6591 13.251L11.6558 13.2566L11.6531 13.2607L11.6499 13.2663L11.6472 13.2704L11.6439 13.276L11.6412 13.2801L11.6379 13.2857L11.6352 13.2898L11.632 13.2954L11.6293 13.3L11.626 13.3057L11.6233 13.3103L11.6201 13.3159L11.6173 13.3205L11.6141 13.3261L11.6114 13.3307L11.6081 13.3363L11.6054 13.3409L11.6022 13.3465L11.5995 13.3511L11.5962 13.3568L11.5935 13.3613L11.5903 13.367L11.5875 13.3716L11.5843 13.3777L11.5816 13.3823L11.5783 13.3884L11.5772 13.3935L11.574 13.3997L11.5713 13.4043L11.568 13.4104L11.5653 13.415L11.5621 13.4211L11.5594 13.4257L11.5556 13.4319L11.5529 13.4365L11.5496 13.4426L11.5469 13.4477L11.5431 13.4538L11.5404 13.4589L11.5371 13.4651L11.5344 13.4702L11.5306 13.4763L11.5279 13.4814L11.5241 13.4875L11.5214 13.4927L11.5176 13.4988L11.5149 13.5039L11.5111 13.5105L11.5084 13.5156L11.5046 13.5223L11.5019 13.5274L11.4981 13.534L11.4954 13.5391L11.4916 13.5458L11.4889 13.5509L11.4851 13.5575L11.4824 13.5627L11.4786 13.5693L11.4759 13.5744L11.4721 13.581L11.4694 13.5862L11.4656 13.5928L11.4629 13.5979L11.4591 13.6045L11.4564 13.6102L11.4526 13.6168L11.4499 13.6224L11.4461 13.6291L11.4434 13.6347L11.4396 13.6413L11.4369 13.647L11.4331 13.6541L11.4304 13.6597L11.4266 13.6669L11.4239 13.6725L11.4201 13.6797L11.4174 13.6853L11.4136 13.6924L11.4109 13.698L11.4071 13.7052L11.4038 13.7108L11.4 13.718L11.3968 13.7236L11.393 13.7307L11.3898 13.7364L11.386 13.7435L11.3827 13.7491L11.3789 13.7563L11.3757 13.7619L11.3719 13.7691L11.3686 13.7747L11.3648 13.7818L11.3616 13.7875L11.3578 13.7946L11.3545 13.8002L11.3507 13.8079L11.3475 13.814L11.3437 13.8217L11.3404 13.8278L11.3366 13.8355L11.3329 13.8421L11.3291 13.8498L11.3258 13.8559L11.322 13.8636L11.3188 13.8697L11.315 13.8774L11.3117 13.8835L11.3079 13.8912L11.3047 13.8973L11.3014 13.9045L11.2982 13.9106L11.2944 13.9183L11.2911 13.9244L11.2873 13.932L11.2841 13.9382L11.2803 13.9458L11.277 13.952L11.2732 13.9596L11.27 13.9658L11.2662 13.9734L11.2629 13.9796L11.2592 13.9877L11.2559 13.9939L11.2521 14.002L11.2489 14.0082L11.2451 14.0163L11.2418 14.023L11.238 14.0312L11.2348 14.0378L11.231 14.046L11.2277 14.0526L11.2239 14.0608L11.2207 14.0674L11.2169 14.0756L11.2136 14.0823L11.2098 14.0904L11.2066 14.0971L11.2028 14.1052L11.1995 14.1119L11.1958 14.1201L11.1925 14.1267L11.1887 14.1349L11.1855 14.1415L11.1817 14.1497L11.1784 14.1563L11.1746 14.1645L11.1714 14.1712L11.1676 14.1798L11.1643 14.1865L11.1605 14.1952L11.1573 14.2018L11.1535 14.2105L11.1502 14.2171L11.1464 14.2258L11.1432 14.2325L11.1394 14.2412L11.1361 14.2478L11.1324 14.2565L11.1291 14.2636L11.1253 14.2723L11.1221 14.2795L11.1183 14.2882L11.115 14.2953L11.1112 14.304L11.108 14.3112L11.1042 14.3198L11.1009 14.327L11.0971 14.3357L11.0939 14.3428L11.0901 14.3515L11.0868 14.3587L11.083 14.3674L11.0798 14.3745L11.076 14.3832L11.0727 14.3903L11.0689 14.3995L11.0657 14.4067L11.0597 14.4154L11.0565 14.4225L11.0527 14.4317L11.0494 14.4389L11.0456 14.4481L11.0424 14.4552L11.0386 14.4644L11.0354 14.4716L11.0316 14.4808L11.0283 14.4879L11.0245 14.4971L11.0213 14.5043L11.0175 14.5135L11.0142 14.5206L11.0104 14.5298L11.0072 14.537L11.0034 14.5462L11.0001 14.5538L10.9963 14.563L10.9931 14.5707L10.9893 14.5799L10.986 14.5876L10.9822 14.5968L10.979 14.6044L10.9752 14.6141L10.9719 14.6218L10.9682 14.6315L10.9649 14.6392L10.9611 14.6489L10.9579 14.6565L10.9535 14.6657L10.9503 14.6734L10.9465 14.6831L10.9432 14.6908L10.9394 14.7005L10.9362 14.7081L10.9324 14.7178L10.9291 14.7255L10.9253 14.7352L10.9221 14.7429L10.9183 14.7526L10.9151 14.7603L10.9113 14.77L10.908 14.7776L10.9042 14.7873L10.901 14.795L10.8972 14.8047L10.8939 14.8124L10.8901 14.8221L10.8869 14.8297L10.8831 14.8394L10.8798 14.8471L10.876 14.8568L10.8728 14.8645L10.869 14.8747L10.8657 14.8824L10.8619 14.8926L10.8587 14.9008L10.8549 14.911L10.8516 14.9191L10.8479 14.9294L10.8446 14.9375L10.8408 14.9478L10.8376 14.9559L10.8338 14.9662L10.8305 14.9743L10.8267 14.9845L10.8235 14.9927L10.8197 15.0029L10.8164 15.0111L10.8126 15.0213L10.8099 15.0295L10.8061 15.0397L10.8034 15.0479L10.7996 15.0581L10.7969 15.0663L10.7931 15.0765L10.791 15.0857L10.7872 15.0959L10.7845 15.1041L10.7807 15.1143L10.778 15.1225L10.7742 15.1332L10.7714 15.1414L10.7677 15.1521L10.7649 15.1603L10.7612 15.171L10.7584 15.1792L10.7546 15.1899L10.7519 15.1981L10.7481 15.2088L10.7454 15.217L10.7416 15.2277L10.7389 15.2359L10.7351 15.2466L10.7324 15.2548L10.7286 15.2656L10.7259 15.2742L10.7221 15.285L10.7194 15.2937L10.7156 15.3044L10.7129 15.3131L10.7091 15.3238L10.7064 15.3325L10.7026 15.3432L10.6999 15.3519L10.6961 15.3626L10.6934 15.3713L10.6896 15.382L10.6869 15.3907L10.6831 15.4015L10.6804 15.4101L10.6766 15.4209L10.6739 15.4296L10.6701 15.4408L10.6674 15.4495L10.6636 15.4607L10.6609 15.4694L10.6576 15.4806L10.6549 15.4893L10.6517 15.5006L10.649 15.5093L10.6457 15.5205L10.643 15.5292L10.6398 15.5404L10.6371 15.5491L10.6338 15.5604L10.6311 15.569L10.6278 15.5803L10.6251 15.589L10.6219 15.6002L10.6192 15.6089L10.6159 15.6201L10.6132 15.6288L10.6073 15.6416L10.6045 15.6503L10.6013 15.6615L10.5986 15.6702L10.5953 15.6814L10.5926 15.6901L10.5894 15.7019L10.5867 15.7106L10.5834 15.7223L10.5807 15.7315L10.5774 15.7433L10.5747 15.7525L10.5715 15.7642L10.5688 15.7734L10.5655 15.7852L10.5628 15.7944L10.5596 15.8061L10.5569 15.8153L10.5536 15.8271L10.5509 15.8362L10.5476 15.848L10.5449 15.8572L10.5417 15.8689L10.539 15.8781L10.5357 15.8899L10.533 15.8991L10.5298 15.9108L10.5271 15.92L10.5238 15.9318L10.5216 15.941L10.52 15.9512L10.5173 15.9604L10.514 15.9722L10.5119 15.9814L10.5086 15.9931L10.5065 16.0023L10.5032 16.0141L10.501 16.0232L10.4978 16.0355L10.4956 16.0447L10.4924 16.057L10.4902 16.0662L10.487 16.0784L10.4848 16.0876L10.4815 16.0999L10.4794 16.1091L10.4767 16.1213L10.4745 16.1305L10.4718 16.1428L10.4691 16.1525L10.4664 16.1648L10.4642 16.174L10.4615 16.1862L10.4593 16.1954L10.4566 16.2077L10.4544 16.2169L10.4517 16.2291L10.4496 16.2383L10.4469 16.2511L10.4458 16.2547L10.4441 16.2618L10.4431 16.2659L10.4414 16.2731L10.4403 16.2772L10.4387 16.2843L10.4376 16.2884L10.436 16.2956L10.4349 16.2997L10.4333 16.3058L10.4322 16.3099L10.4306 16.317L10.4295 16.3211L10.4279 16.3283L10.4268 16.3324L10.4252 16.3395L10.4241 16.3436L10.4225 16.3507L10.4214 16.3548L10.4198 16.362L10.4187 16.3661L10.417 16.3732L10.416 16.3773L10.4143 16.3845L10.4133 16.3886L10.4116 16.3957L10.4105 16.3998L10.4116 16.4049L10.4105 16.409L10.4089 16.4161L10.4078 16.4202L10.4062 16.4274L10.4051 16.4315L10.4035 16.4386L10.4024 16.4427L10.4008 16.4499L10.3997 16.454L10.3981 16.4611L10.397 16.4652L10.3954 16.4723L10.3948 16.4764L10.3932 16.4836L10.3927 16.4877L10.391 16.4948L10.39 16.4989L10.3883 16.5061L10.3878 16.5102L10.3862 16.5173L10.3856 16.5214L10.384 16.5285L10.3835 16.5326L10.3818 16.5398L10.3813 16.5439L10.3797 16.551L10.3791 16.5551L10.3797 16.5612L10.3791 16.5653L10.3775 16.5725L10.3769 16.5766L10.3753 16.5837L10.3748 16.5878L10.3732 16.595L10.3726 16.5991L10.371 16.6062L10.3704 16.6103L10.3688 16.6174L10.3683 16.6215L10.3667 16.6287L10.3661 16.6328L10.3645 16.6399L10.3639 16.644L10.3623 16.6512L10.3618 16.6553L10.3601 16.6629L10.3596 16.667L10.358 16.6742L10.3574 16.6777L10.3564 16.6849L10.3558 16.689L10.3542 16.6961L10.3536 16.7002L10.3526 16.7079L10.352 16.712L10.3509 16.7196L10.3504 16.7237L10.3493 16.7314L10.3488 16.7355L10.3477 16.7431L10.3471 16.7472L10.3461 16.7549L10.3455 16.759L10.3444 16.7666L10.3439 16.7707L10.3428 16.7784L10.3423 16.7825L10.3412 16.7901L10.3406 16.7942L10.3396 16.8019L10.339 16.806L10.3379 16.8136L10.3374 16.8177L10.3363 16.8254L10.3358 16.8295L10.3347 16.8371L10.3341 16.8412L10.3331 16.8489L10.3325 16.853L10.3314 16.8606L10.3309 16.8647L10.3298 16.8724L10.3293 16.8765L10.3282 16.8841L10.3276 16.8882L10.3266 16.8959L10.326 16.9L10.3249 16.9077L10.3244 16.9117L10.3233 16.9194L10.3163 16.9189L10.3152 16.9266L10.3146 16.9306L10.3135 16.9383L10.313 16.9424L10.3119 16.9501L10.3114 16.9541L10.3103 16.9618L10.3098 16.9659L10.3087 16.9736L10.3081 16.9776L10.307 16.9853L10.3065 16.9894L10.3054 16.9971L10.3049 17.0011L10.3038 17.0088L10.3032 17.0129L10.3022 17.0206L10.3016 17.0247L10.3005 17.0323L10.3 17.0364L10.2989 17.0441L10.2984 17.0482L10.2973 17.0558L10.2967 17.0599L10.2957 17.0676L10.2951 17.0717L10.294 17.0793L10.2935 17.0834L10.2924 17.0911L10.2919 17.0952L10.2908 17.1028L10.2902 17.1069L10.2892 17.1146L10.2886 17.1187L10.2875 17.1263L10.287 17.1304L10.2859 17.1381L10.2854 17.1422L10.2843 17.1498L10.2837 17.1539L10.2827 17.1616L10.2821 17.1657L10.281 17.1733L10.2805 17.1774L10.2794 17.1851L10.2789 17.1892L10.2778 17.1968L10.2772 17.2009L10.2762 17.2086L10.2756 17.2127L10.2745 17.2203L10.274 17.2244L10.2729 17.2321L10.2724 17.2362L10.2713 17.2438L10.2707 17.2479L10.2697 17.2556L10.2691 17.2597L10.268 17.2673L10.2675 17.2714L10.2664 17.2791L10.2659 17.2832L10.2648 17.2908L10.2642 17.2949L10.2631 17.3026L10.2626 17.3067L10.2615 17.3143L10.261 17.3184L10.2599 17.3266L10.2594 17.3307L10.2583 17.3389L10.2577 17.343L10.2566 17.3511L10.2561 17.3552L10.255 17.3634L10.2545 17.3675L10.2534 17.3757L10.2561 17.3787L10.255 17.3869L10.2545 17.391L10.2534 17.3992L10.2529 17.4032L10.2518 17.4114L10.2512 17.4155L10.2501 17.4237L10.2496 17.4278L10.2491 17.4359L10.2485 17.44L10.248 17.4482L10.2491 17.4508L10.2485 17.4589L10.248 17.463L10.2474 17.4712L10.2469 17.4753L10.2464 17.4835L10.2458 17.4875L10.2453 17.4957L10.2447 17.4998L10.2442 17.508L10.2436 17.5121L10.2431 17.5202L10.2426 17.5243L10.242 17.5325L10.2415 17.5366L10.2409 17.5448L10.2404 17.5489L10.2398 17.557L10.2393 17.5611L10.2388 17.5693L10.2382 17.5734L10.2377 17.5816L10.2371 17.5856L10.2366 17.5938L10.2361 17.5979L10.2355 17.6061L10.235 17.6102L10.2344 17.6183L10.2339 17.6224L10.2333 17.6306L10.2328 17.6347L10.2323 17.6429L10.2317 17.647L10.2312 17.6551L10.2306 17.6592L10.2301 17.6674L10.2296 17.6715L10.229 17.6797L10.2285 17.6837L10.2279 17.6919L10.2274 17.696L10.2268 17.7042L10.2263 17.7083L10.2258 17.7164L10.2252 17.7205L10.2247 17.7287V17.7328L10.2241 17.741V17.7451L10.2236 17.7532V17.7573L10.223 17.7655V17.7696L10.2225 17.7777V17.7818L10.222 17.79V17.7941L10.2214 17.8023V17.8064L10.2209 17.8145V17.8186L10.2203 17.8268V17.8309L10.2198 17.8391V17.8431L10.2193 17.8513V17.8554L10.2187 17.8636V17.8677L10.2182 17.8758V17.8799L10.2176 17.8881V17.8922L10.2171 17.9004V17.9045L10.2165 17.9126V17.9167L10.216 17.9249V17.929L10.2155 17.9372V17.9412L10.2149 17.9499V17.954L10.2144 17.9622V17.9663L10.2138 17.975V17.9791L10.2133 17.9877V17.9918L10.2128 18.0005V18.0046L10.2122 18.0133V18.0174V18.0261V18.0301V18.0388V18.0429V18.0516V18.0557V18.0644V18.0685V18.0771V18.0812V18.0899V18.094V18.1027V18.1068V18.1155V18.1196V18.1282V18.1323V18.141V18.1451V18.1538V18.1579V18.1666V18.1706V18.1793V18.1834V18.1921V18.1962V18.2049V18.209V18.2177V18.2217V18.2304V18.2345V18.2432V18.2473V18.256V18.2601V18.2687V18.2728V18.2815V18.2856V18.2943V18.2984V18.3071V18.3111V18.3198V18.3239V18.3326V18.3367V18.3454V18.3495V18.3582V18.3622V18.3709V18.375V18.3837V18.3878V18.3965V18.4006V18.4092V18.4133V18.422V18.4261V18.4348V18.4389V18.4476V18.4517V18.4603V18.4644V18.4731V18.4772V18.4859V18.49V18.4987V18.5027V18.5114V18.5155V18.5242V18.5283V18.537V18.5411L10.2128 18.5498V18.5538L10.2133 18.5625V18.5666L10.2138 18.5753V18.5794L10.2144 18.5881V18.5922L10.2149 18.6008V18.6049L10.2155 18.6136V18.6177L10.216 18.6269V18.631L10.2165 18.6402V18.6443L10.2171 18.6535V18.6576L10.2176 18.6667V18.6708L10.2182 18.68V18.6841L10.2187 18.6933V18.6974L10.2193 18.7066V18.7107L10.2198 18.7199V18.724L10.2203 18.7332V18.7373L10.2209 18.7465V18.7505L10.2214 18.7597V18.7638L10.222 18.773V18.7771L10.2225 18.7863V18.7904L10.223 18.7996V18.8037L10.2236 18.8129V18.817L10.2241 18.8262V18.8302L10.2247 18.8394V18.8435L10.2252 18.8527V18.8568L10.2258 18.866V18.8701L10.2263 18.8793L10.2268 18.8834L10.2274 18.8926L10.2279 18.8967L10.2285 18.9059L10.229 18.91L10.2296 18.9191L10.2301 18.9232L10.2306 18.9324L10.2312 18.9365L10.2317 18.9457L10.2323 18.9498L10.2328 18.959L10.2333 18.9631L10.2339 18.9723L10.2344 18.9764L10.235 18.9856L10.2355 18.9897L10.2361 18.9988L10.2366 19.0029L10.2371 19.0121L10.2377 19.0162L10.2382 19.0254L10.2388 19.0295L10.2398 19.0387L10.2404 19.0428L10.2415 19.052L10.242 19.0561L10.2431 19.0653L10.2436 19.0694L10.2447 19.0786L10.2453 19.0826L10.2464 19.0918L10.2469 19.0959L10.248 19.1051L10.2485 19.1092L10.2491 19.1056L10.2496 19.1097L10.2507 19.1189L10.2512 19.123L10.2523 19.1322L10.2529 19.1363L10.2539 19.1455L10.2545 19.1496L10.2556 19.1588L10.2561 19.1629L10.2572 19.1721L10.2577 19.1761L10.2588 19.1853L10.2594 19.1894L10.2604 19.1986L10.261 19.2027L10.2621 19.2119L10.2626 19.216L10.2637 19.2252L10.2642 19.2293L10.2653 19.2385L10.2659 19.2426L10.2669 19.2518L10.2675 19.2558L10.2686 19.265L10.2691 19.2691L10.2702 19.2783L10.2707 19.2824L10.2718 19.2916L10.2724 19.2957L10.2734 19.3049L10.274 19.309L10.2751 19.3182L10.2756 19.3223L10.2767 19.3315L10.2772 19.3355L10.2783 19.3453L10.2789 19.3493L10.2799 19.359L10.2805 19.3631L10.2816 19.3728L10.2821 19.3769L10.2832 19.3866L10.2837 19.3907L10.2848 19.4004L10.2854 19.4045L10.2865 19.4142L10.287 19.4183L10.2881 19.428L10.2886 19.4321L10.2897 19.4418L10.2902 19.4459L10.2913 19.4556L10.2919 19.4597L10.2935 19.4694L10.294 19.473L10.2957 19.4827L10.2962 19.4863L10.2978 19.496L10.2984 19.5001L10.3 19.5098L10.3005 19.5133L10.3022 19.5231L10.3027 19.5271L10.3043 19.5368L10.3049 19.5404L10.3065 19.5501L10.307 19.5537L10.3087 19.5634L10.3092 19.5675L10.3108 19.5772L10.3114 19.5808L10.313 19.5905L10.3135 19.5941L10.3152 19.6038L10.3157 19.6074L10.3173 19.6171L10.3179 19.6206L10.3195 19.6303L10.32 19.6339L10.3217 19.6436L10.3222 19.6472L10.3238 19.6569L10.3244 19.6605L10.326 19.6702L10.3266 19.6738L10.3282 19.6835L10.3287 19.6871L10.3303 19.6968L10.3309 19.7003L10.3325 19.7101L10.3331 19.7136L10.3347 19.7233L10.3352 19.7269L10.3368 19.7366L10.3374 19.7402L10.339 19.7499L10.3396 19.7535L10.3412 19.7632L10.3417 19.7668L10.3434 19.7765L10.3439 19.78L10.3455 19.7898L10.3461 19.7933L10.3477 19.803L10.3482 19.8066L10.3499 19.8163L10.3504 19.8199L10.352 19.8296L10.3526 19.8332L10.3542 19.8429L10.3547 19.8465L10.3564 19.8562L10.3569 19.8598L10.3591 19.8695L10.3596 19.873L10.3618 19.8827L10.3623 19.8863L10.3645 19.896L10.365 19.8996L10.3672 19.9093L10.3677 19.9129L10.3699 19.9226L10.3704 19.9262L10.3726 19.9359L10.3732 19.9395L10.3753 19.9492L10.3759 19.9527L10.378 19.9624L10.3786 19.966L10.3807 19.9757L10.3813 19.9793L10.3835 19.989L10.384 19.9926L10.3862 20.0023L10.3867 20.0059L10.3889 20.0156L10.39 20.0192L10.3921 20.0289L10.3927 20.0324L10.3948 20.0422L10.3954 20.0457L10.3975 20.0554L10.3986 20.059L10.4008 20.0687L10.4019 20.0723L10.404 20.082L10.4051 20.0856L10.4073 20.0958L10.4084 20.0994L10.4105 20.1096L10.4116 20.1132L10.4138 20.1234L10.4149 20.127L10.417 20.1372L10.4181 20.1408L10.4203 20.151L10.4214 20.1546L10.4236 20.1648L10.4246 20.1683L10.4268 20.1786L10.4279 20.1821L10.4301 20.1924L10.4311 20.1959L10.4333 20.2062L10.4344 20.2097L10.4366 20.2199L10.4376 20.2235L10.4398 20.2337L10.4409 20.2373L10.4436 20.2475L10.4447 20.2511L10.4474 20.2613L10.4485 20.2649L10.4512 20.2751L10.4523 20.2787L10.455 20.2889L10.4561 20.2925L10.4588 20.3027L10.4599 20.3063L10.4626 20.3165L10.4637 20.3201L10.4664 20.3303L10.4674 20.3339L10.4702 20.3441L10.4712 20.3477L10.4739 20.3579L10.475 20.3615L10.4777 20.3717L10.4788 20.3753L10.4815 20.3855L10.4821 20.3932L10.4848 20.4034L10.4859 20.4069L10.4886 20.4172L10.4897 20.4207L10.4924 20.431L10.4935 20.4345L10.4962 20.4448L10.4972 20.4483L10.5 20.4586L10.501 20.4621L10.5038 20.4723L10.5048 20.4759L10.5075 20.4861L10.5086 20.4897L10.5113 20.4999L10.5124 20.5035L10.5151 20.5137L10.5162 20.5173L10.5189 20.5275L10.52 20.5311L10.5227 20.5413L10.5238 20.5449L10.5265 20.5551L10.5276 20.5587L10.5303 20.5689L10.5314 20.5725L10.5346 20.5827L10.5357 20.5863L10.539 20.5965L10.5401 20.6001L10.5433 20.6103L10.5444 20.6139L10.5476 20.6241L10.5487 20.6277L10.552 20.6379L10.5531 20.6415L10.5563 20.6517L10.5574 20.6553L10.5607 20.6655L10.5617 20.6691L10.565 20.6793L10.5661 20.6828L10.5693 20.6931L10.5704 20.6966L10.5737 20.7069L10.5747 20.7104L10.578 20.7207L10.5791 20.7242L10.5823 20.7344L10.5834 20.738L10.5867 20.7482L10.5877 20.7518L10.591 20.762L10.5921 20.7656L10.5953 20.7758L10.5964 20.7794L10.5997 20.7896L10.6008 20.7932L10.604 20.8034L10.6051 20.807L10.6083 20.8172L10.6094 20.8208L10.6127 20.831L10.6138 20.8346L10.617 20.8448L10.6181 20.8484L10.6213 20.8586L10.6224 20.8622L10.6257 20.8724L10.6268 20.876L10.63 20.8867L10.6311 20.8903L10.6343 20.901L10.6354 20.9046L10.6387 20.9153L10.6398 20.9189L10.6436 20.9296L10.6446 20.9332L10.6484 20.9439L10.6495 20.9475L10.6533 20.9582L10.6544 20.9618L10.6582 20.9725L10.6593 20.9761L10.6631 20.9868L10.6642 20.9904L10.6679 21.0011L10.669 21.0047L10.6728 21.0155L10.6739 21.019L10.6777 21.0298L10.6788 21.0333L10.6826 21.0441L10.6837 21.0476L10.688 21.0574L10.6891 21.0609L10.6929 21.0717L10.694 21.0752L10.6978 21.086L10.6988 21.0895L10.7026 21.1003L10.7037 21.1038L10.7075 21.1146L10.7086 21.1182L10.7124 21.1289L10.7135 21.1325L10.7173 21.1432L10.7183 21.1468L10.7221 21.1575L10.7232 21.1611L10.727 21.1718L10.7281 21.1754L10.7319 21.1861L10.733 21.1897L10.7368 21.2004L10.7379 21.204L10.7416 21.2147L10.7427 21.2183L10.7465 21.229L10.7476 21.2326L10.7519 21.2433L10.753 21.2469L10.7574 21.2576L10.7584 21.2612L10.7628 21.2719L10.7639 21.2755L10.7682 21.2862L10.7693 21.2898L10.7736 21.3005L10.7747 21.3041L10.779 21.3149L10.7801 21.3184L10.7845 21.3292L10.7861 21.3327L10.7904 21.3435L10.792 21.347L10.7964 21.3578L10.7975 21.3613L10.8018 21.3721L10.8034 21.3757L10.8078 21.3864L10.8094 21.39L10.8137 21.4007L10.8153 21.4043L10.8197 21.415L10.8213 21.4186L10.8256 21.4293L10.8273 21.4329L10.8316 21.4436L10.8332 21.4472L10.8376 21.4579L10.8392 21.4615L10.8435 21.4722L10.8451 21.4758L10.8495 21.4865L10.8511 21.4901L10.8554 21.5008L10.8571 21.5044L10.8614 21.5151L10.863 21.5187L10.8674 21.5294L10.869 21.5325L10.8733 21.5432L10.875 21.5468L10.8793 21.5575L10.8809 21.5611L10.8858 21.5718L10.8874 21.5754L10.8923 21.5862L10.8939 21.5897L10.8988 21.6005L10.9004 21.604L10.9053 21.6148L10.9069 21.6183L10.9118 21.6291L10.9134 21.6321L10.9183 21.6429L10.9199 21.6459L10.9248 21.6567L10.9264 21.6602L10.9313 21.671L10.9329 21.6745L10.9378 21.6853L10.9394 21.6888L10.9443 21.6996L10.9459 21.7032L10.9508 21.7139L10.9524 21.7175L10.9573 21.7282L10.9589 21.7318L10.9638 21.7425L10.9654 21.7461L10.9703 21.7568L10.9719 21.7604L10.9768 21.7711L10.9785 21.7747L10.9833 21.7854L10.985 21.789L10.9898 21.7997L10.9915 21.8033L10.9963 21.814L10.998 21.8176L11.0028 21.8283L11.0045 21.8319L11.0093 21.8426L11.011 21.8462L11.0158 21.8569L11.0175 21.8605L11.0223 21.8712L11.024 21.8748L11.0288 21.8856L11.0305 21.8891L11.0354 21.8999L11.037 21.9034L11.0419 21.9142L11.044 21.9183L11.0489 21.9285L11.0511 21.9326L11.0559 21.9428L11.0581 21.9474L11.063 21.9571L11.0657 21.9627L11.07 21.9714L11.0749 21.9816L11.0771 21.9857L11.0841 22C8.64776 19.5987 7.11473 16.3824 7.00419 12.8295V12.829L7.00365 12.8075V12.806L7.0031 12.7855V12.783L7.00256 12.7641V12.7605L7.00202 12.7426V12.738L7.00148 12.7212V12.7155L7.00094 12.6992V12.6931L7.00039 12.6777V12.6706V12.6563V12.6481V12.6343V12.6256V12.6123V12.6031V12.5909V12.5812V12.5694V12.5592V12.548V12.5372V12.5265V12.5153V12.505V12.4928V12.4831V12.4703V12.4616V12.4473V12.4402C7.00039 12.433 7.00039 12.4259 7.00039 12.4182C6.99768 12.1014 7.00906 11.7882 7.03074 11.4776Z"/>
</svg>
