<svg width="24" height="24" viewBox="0 0 24 24" fill="none" xmlns="http://www.w3.org/2000/svg">
<path d="M12 3C8.46952 3 5.28246 4.45742 3 6.8027L4.72545 8.64123C6.55561 6.71475 9.1396 5.5128 12 5.5128C14.8604 5.5128 17.4444 6.71475 19.2745 8.64123L21 6.8027C18.7175 4.45742 15.5305 3 12 3Z"/>
<path d="M14.0402 9.05766L15.5081 7.1178L15.5423 9.53424C15.5606 10.8481 15.6285 17.4706 15.1427 18.8177C14.8457 19.6418 14.2395 20.3029 13.4356 20.6792C12.9807 20.8925 12.4929 21 12.0034 21C11.6283 21 11.252 20.9369 10.8883 20.8103C9.15586 20.2078 8.24531 18.3339 8.85926 16.6329C9.33772 15.3067 13.259 10.0899 14.0402 9.05766Z"/>
</svg>
