<svg width="24" height="24" viewBox="0 0 24 24" xmlns="http://www.w3.org/2000/svg">

<path fill-rule="evenodd" clip-rule="evenodd" d="M8.8162 2H14.5968V11.3096C16.3099 12.3 17.4624 14.1513 17.4624 16.2716C17.4624 19.4353 14.8965 22 11.7312 22C8.56596 22 6 19.4353 6 16.2716C6 14.1717 7.13042 12.3358 8.8162 11.3385V2ZM11.7312 19.6296C13.5867 19.6296 15.0909 18.1262 15.0909 16.2716C15.0909 14.7427 14.0686 13.4524 12.67 13.0464V3.92593H10.7431V13.0612C9.36983 13.4829 8.37154 14.7607 8.37154 16.2716C8.37154 18.1262 9.87572 19.6296 11.7312 19.6296Z"/>
</svg>
