<svg width="48" height="48" viewBox="0 0 48 48" xmlns="http://www.w3.org/2000/svg">
<path d="M47.2133 18.717C47.17 18.5838 47.0904 18.4653 46.9833 18.375C46.8761 18.2848 46.7459 18.2263 46.6073 18.2062L31.4513 16.0035L24.675 2.26949C24.6062 2.15237 24.5079 2.05528 24.39 1.98781C24.272 1.92035 24.1385 1.88486 24.0027 1.88486C23.8668 1.88486 23.7333 1.92035 23.6153 1.98781C23.4974 2.05528 23.3991 2.15237 23.3303 2.26949L16.5488 16.0035L1.39203 18.2062C1.25354 18.2262 1.12339 18.2846 1.01632 18.3747C0.909249 18.4647 0.829514 18.583 0.786131 18.716C0.742749 18.8491 0.737449 18.9916 0.77083 19.1275C0.804212 19.2634 0.874944 19.3872 0.97503 19.485L11.9445 30.1762L9.35553 45.2715C9.332 45.4093 9.34746 45.551 9.40018 45.6805C9.45289 45.81 9.54075 45.9222 9.65385 46.0044C9.76695 46.0866 9.90078 46.1356 10.0402 46.1457C10.1797 46.1559 10.3192 46.1269 10.443 46.062L24 38.9355L37.557 46.0605C37.6809 46.1254 37.8204 46.1544 37.9598 46.1442C38.0993 46.1341 38.2331 46.0851 38.3462 46.0029C38.4593 45.9207 38.5472 45.8085 38.5999 45.679C38.6526 45.5495 38.6681 45.4078 38.6445 45.27L36.0555 30.1762L47.025 19.485C47.1248 19.3872 47.1953 19.2635 47.2286 19.1278C47.2618 18.9921 47.2565 18.8498 47.2133 18.717Z" />
</svg>
