<svg width="24" height="24" viewBox="0 0 24 24" fill="none" xmlns="http://www.w3.org/2000/svg">
<path d="M20.5714 2H3.38393C2.625 2 2 2.66964 2 3.47321V20.5714C2 21.375 2.625 22 3.38393 22H20.5714C21.3304 22 22 21.375 22 20.5714V3.47321C22 2.66964 21.3304 2 20.5714 2ZM8.02679 19.1429H5.08036V9.63393H8.02679V19.1429ZM6.55357 8.29464C5.57143 8.29464 4.8125 7.53571 4.8125 6.59821C4.8125 5.66071 5.57143 4.85714 6.55357 4.85714C7.49107 4.85714 8.25 5.66071 8.25 6.59821C8.25 7.53571 7.49107 8.29464 6.55357 8.29464ZM19.1429 19.1429H16.1518V14.5C16.1518 13.4286 16.1518 12 14.6339 12C13.0714 12 12.8482 13.2054 12.8482 14.4554V19.1429H9.90179V9.63393H12.7143V10.9286H12.7589C13.1607 10.1696 14.1429 9.36607 15.5714 9.36607C18.5625 9.36607 19.1429 11.375 19.1429 13.9196V19.1429Z"/>
</svg>
