<svg width="24" height="24" viewBox="0 0 24 24" xmlns="http://www.w3.org/2000/svg">

<path d="M6 12C6 8.7 8.7 6 12 6C14.3 6 16.3 7.30002 17.3 9.15002L19.3 6.75C17.65 4.5 15 3 12 3C7.05 3 3 7.05 3 12H2L4.5 15L7 12H6ZM19.5 9L17 12H18C18 15.3 15.3 18 12 18C9.7 18 7.7 16.7 6.7 14.85L4.7 17.25C6.35 19.5 9 21 12 21C16.95 21 21 16.95 21 12H22L19.5 9Z"/>
<path d="M15.8839 14.15V12.5C15.8839 12.5 15.2255 13.15 13.9085 13.15C12.5915 13.15 11.2745 11.9 9.95749 11.9C8.6405 11.9 7.98205 12.55 7.98205 12.55V14.2C7.98205 14.2 8.6405 13.55 9.95749 13.55C11.2745 13.55 12.5915 14.8 13.9085 14.8C15.2255 14.8 15.8839 14.15 15.8839 14.15ZM15.8839 11.25V9.6C15.8839 9.6 15.2255 10.25 13.9085 10.25C12.5915 10.25 11.2745 9 9.95749 9C8.6405 9 7.98205 9.65 7.98205 9.65V11.3C7.98205 11.3 8.6405 10.65 9.95749 10.65C11.2745 10.65 12.5915 11.9 13.9085 11.9C15.2255 11.9 15.8839 11.25 15.8839 11.25Z"/>
</svg>
