<svg width="24" height="24" viewBox="0 0 24 24" fill="none" xmlns="http://www.w3.org/2000/svg">
<path d="M13.875 7C15.2557 7 16.375 5.88071 16.375 4.5C16.375 3.11929 15.2557 2 13.875 2C12.4943 2 11.375 3.11929 11.375 4.5C11.375 5.88071 12.4943 7 13.875 7Z"/>
<path d="M16.375 8.25001H10.1731C8.78187 6.12189 6.58 6.09501 5.57 6.40189L4.95375 6.58751L5.93375 9.52751C5.14188 10.1781 4.54313 11.0331 4.20125 12H2V17.625H5.31063C6.09312 18.5 7.11438 19.1013 8.25 19.3581V22H12V19.5H14.5V22H18.25V19.1744C20.4806 18.3875 22 16.2738 22 13.875C22 10.7731 19.4762 8.25001 16.375 8.25001ZM7.9375 13.875C7.42 13.875 7 13.455 7 12.9375C7 12.42 7.42 12 7.9375 12C8.455 12 8.875 12.42 8.875 12.9375C8.875 13.455 8.455 13.875 7.9375 13.875ZM16.375 12H11.375V10.75H16.375V12Z"/>
</svg>
