<svg width="24" height="24" viewBox="0 0 24 24" fill="none" xmlns="http://www.w3.org/2000/svg">
<path d="M3 17.8H5.26117V12.3625H11.0451V17.8H13.3124V5H11.0451V10.4187H5.26117V5H3V17.8Z"/>
<path d="M15.1551 20H21V18.5875H17.5808V18.5313L18.8363 17.5063C20.2442 16.4438 20.8659 15.675 20.8659 14.6C20.8659 13.2625 19.7201 12.225 17.977 12.225C16.2583 12.225 15.0393 13.1875 15.0393 14.7313H16.6544C16.6544 14.0125 17.1725 13.5875 17.9526 13.5875C18.684 13.5875 19.2569 13.975 19.2569 14.625C19.2569 15.225 18.8181 15.6313 18.0867 16.2625L15.1551 18.7563V20Z"/>
</svg>
