<svg width="18" height="12" viewBox="0 0 18 12" fill="none" xmlns="http://www.w3.org/2000/svg">
<path fill-rule="evenodd" clip-rule="evenodd" d="M17 9.51655L14 8.57027V1.94628C14 1.94628 14 1 15.5 1C17 1 17 1.94628 17 1.94628V9.51655ZM13 9.51655L10 8.57027V1.94628C10 1.94628 10 1 11.5 1C13 1 13 1.94628 13 1.94628V9.51655ZM9 9.51655L6 8.57027V1.94628C6 1.94628 6 1 7.5 1C9 1 9 1.94628 9 1.94628V9.51655ZM5 9.51655L2 8.57027V1.94628C2 1.94628 2 1 3.5 1C5 1 5 1.94628 5 1.94628V9.51655ZM0 12H18V0H0V12Z"/>
</svg>
