<svg width="24" height="24" viewBox="0 0 24 24" xmlns="http://www.w3.org/2000/svg">

<path d="M6.73684 17.6842C5.84211 17.6842 5.15789 18.3684 5.15789 19.2632C5.15789 20.1579 5.84211 20.8421 6.73684 20.8421C7.63158 20.8421 8.31579 20.1579 8.31579 19.2632C8.31579 18.3684 7.63158 17.6842 6.73684 17.6842ZM6.73684 6.10526V4H2V6.10526H5.15789V16.1053H18.8421L22 6.10526H6.73684ZM16.7368 17.6842C15.8421 17.6842 15.1579 18.3684 15.1579 19.2632C15.1579 20.1579 15.8421 20.8421 16.7368 20.8421C17.6316 20.8421 18.3158 20.1579 18.3158 19.2632C18.3158 18.3684 17.6316 17.6842 16.7368 17.6842Z"/>
</svg>
