<svg width="24" height="24" viewBox="0 0 24 24" xmlns="http://www.w3.org/2000/svg">
<path d="M19 7C16.243 7 14 9.243 14 12C14 14.757 16.243 17 19 17C21.757 17 24 14.757 24 12C24 9.243 21.757 7 19 7ZM22 12C22 12.462 21.887 12.894 21.699 13.285L17.714 9.3C18.106 9.113 18.538 9 19 9C20.654 9 22 10.346 22 12ZM16 12C16 11.538 16.113 11.106 16.301 10.715L20.286 14.7C19.894 14.887 19.462 15 19 15C17.346 15 16 13.654 16 12Z"/>
<path d="M12 12C12 9.209 13.637 6.807 16 5.683V2C16 1.621 15.786 1.275 15.447 1.105C15.109 0.937998 14.703 0.972998 14.4 1.2L6.667 7H1C0.447 7 0 7.447 0 8V16C0 16.553 0.447 17 1 17H6.667L14.4 22.8C14.576 22.933 14.788 23 15 23C15.152 23 15.306 22.965 15.447 22.895C15.786 22.725 16 22.379 16 22V18.317C13.637 17.193 12 14.791 12 12Z"/>
</svg>
