<svg width="31" height="32" viewBox="0 0 31 32" xmlns="http://www.w3.org/2000/svg">
<path fill-rule="evenodd" clip-rule="evenodd" d="M1 0H24C24.553 0 25 0.447998 25 1V6.059C24.671 6.022 24.338 6 24 6C19.037 6 15 10.038 15 15C15 17.136 15.752 19.099 17 20.644V28H1C0.447 28 0 27.552 0 27V1C0 0.447998 0.447 0 1 0ZM4 20H11V18H4V20ZM11 15H4V13H11V15ZM4 10H13V8H4V10Z"/>
<path d="M24 24C22.151 24 20.431 23.438 19 22.478V31.618L24 29.118L29 31.618V22.478C27.569 23.438 25.849 24 24 24Z"/>
<circle cx="24" cy="15" r="7"/>
</svg>
