<svg width="24" height="24" viewBox="0 0 24 24" fill="none" xmlns="http://www.w3.org/2000/svg">
<path fill-rule="evenodd" clip-rule="evenodd" d="M5.22224 4.87426C5.4095 4.17961 7.21971 2.41141 8.34329 2.03251C8.71782 1.90621 9.34203 2.15881 9.46687 2.60086L11.5268 6.51616C11.7765 6.95821 11.3395 7.27396 10.7153 7.71601L9.5293 8.41066C8.03119 9.35791 13.0249 17.4411 14.523 16.4939L15.709 15.7361C16.3332 15.3572 16.8326 15.1046 17.0822 15.4835L19.7039 19.1462C20.016 19.3988 19.9536 20.0934 19.7039 20.346C18.83 21.2301 16.5205 22.1142 15.7714 21.9879C10.6529 21.2301 3.66171 9.86311 5.22224 4.87426Z" />
</svg>
