<svg width="24" height="24" viewBox="0 0 24 24" xmlns="http://www.w3.org/2000/svg">

<path fill-rule="evenodd" clip-rule="evenodd" d="M5.8162 2H11.5968V11.3096C13.3099 12.3 14.4624 14.1513 14.4624 16.2716C14.4624 19.4353 11.8965 22 8.73122 22C5.56596 22 3 19.4353 3 16.2716C3 14.1717 4.13042 12.3358 5.8162 11.3385V2ZM8.73122 19.6296C10.5867 19.6296 12.0909 18.1262 12.0909 16.2716C12.0909 14.7427 11.0686 13.4524 9.66996 13.0464V3.92593H7.74308V13.0612C6.36983 13.4829 5.37154 14.7607 5.37154 16.2716C5.37154 18.1262 6.87572 19.6296 8.73122 19.6296Z"/>
<path d="M14.75 2H20.3962V3.75H14.75V2Z"/>
<path d="M20.4 5H14.75V6.75H20.4V5Z"/>
</svg>
