<svg width="24" height="24" viewBox="0 0 24 24" fill="none" xmlns="http://www.w3.org/2000/svg">
<path fill-rule="evenodd" clip-rule="evenodd" d="M21.9786 8.77224L21.9554 7.84663C21.8958 6.98353 21.7619 6.23949 21.5536 5.61449C21.2857 4.87044 20.8765 4.22312 20.3259 3.67252C19.7753 3.12193 19.128 2.7127 18.3839 2.44484C17.7589 2.23651 17.0223 2.11002 16.1741 2.06538C15.4564 2.0276 14.3498 2.00581 12.8543 2H11.1457C10.194 2.0037 9.39984 2.01387 8.76313 2.03051L7.82589 2.06538C6.97768 2.11002 6.24107 2.23651 5.61607 2.44484C4.87202 2.7127 4.2247 3.12193 3.67411 3.67252C3.12351 4.22312 2.71429 4.87044 2.44643 5.61449C2.2381 6.23949 2.11161 6.97609 2.06696 7.82431C2.02232 8.67252 2 10.0639 2 11.9984L2.00634 13.6299C2.01162 14.2454 2.02021 14.7805 2.0321 15.2353L2.06696 16.1725C2.11161 17.0207 2.2381 17.7573 2.44643 18.3823C2.71429 19.1264 3.12351 19.7737 3.67411 20.3243C4.2247 20.8749 4.87202 21.2692 5.61607 21.5073C6.24107 21.7454 6.97768 21.8868 7.82589 21.9315C8.54361 21.9692 9.65022 21.991 11.1457 21.9968H12.8543C13.9419 21.9926 14.8239 21.9799 15.5001 21.9588L16.1741 21.9315C17.0223 21.8868 17.7589 21.7603 18.3839 21.552C19.128 21.2841 19.7753 20.8749 20.3259 20.3243C20.8765 19.7737 21.2857 19.1264 21.5536 18.3823C21.7619 17.7573 21.8884 17.0207 21.933 16.1725C21.9777 15.3243 22 13.9329 22 11.9984L21.9934 10.0106C21.9899 9.5457 21.9849 9.13291 21.9786 8.77224ZM17.8926 19.8109C18.8152 19.424 19.4551 18.7841 19.8123 17.8913C19.9908 17.3853 20.1099 16.5818 20.1694 15.4806C20.1926 14.9713 20.2067 14.3 20.2118 13.4667L20.2141 11.2841C20.2141 10.4706 20.2074 9.78942 20.1942 9.24048L20.1694 8.51628C20.1099 7.38532 19.9908 6.58175 19.8123 6.10556C19.4551 5.18294 18.8152 4.54306 17.8926 4.18592C17.4164 4.00735 16.6129 3.8883 15.4819 3.82878C14.9727 3.80563 14.3014 3.79148 13.468 3.78634H10.5315C9.93628 3.79001 9.42371 3.79828 8.99381 3.81114L8.51762 3.82878C7.41643 3.8883 6.61286 4.00735 6.10691 4.18592C5.18429 4.54306 4.54441 5.18294 4.18727 6.10556C4.0087 6.58175 3.88965 7.38532 3.83012 8.51628C3.80698 9.02554 3.79283 9.69683 3.78769 10.5302L3.78548 12.7127C3.78548 13.5064 3.7921 14.181 3.80532 14.7365L3.83012 15.4806C3.88965 16.5818 4.0087 17.3853 4.18727 17.8913C4.57417 18.8139 5.21405 19.4538 6.10691 19.8109C6.61286 19.9895 7.41643 20.1085 8.51762 20.1681C9.02688 20.1912 9.69818 20.2054 10.5315 20.2105H13.4835C14.0879 20.2068 14.6004 20.1986 15.0212 20.1857L15.4819 20.1681C16.6129 20.1085 17.4164 19.9895 17.8926 19.8109Z"/>
<path fill-rule="evenodd" clip-rule="evenodd" d="M14.5669 7.55647C13.7782 7.09516 12.9225 6.8645 11.9999 6.8645C11.0773 6.8645 10.2216 7.09516 9.43293 7.55647C8.64424 8.01778 8.01924 8.64278 7.55793 9.43147C7.09662 10.2202 6.86597 11.0758 6.86597 11.9984C6.86597 12.921 7.09662 13.7767 7.55793 14.5654C8.01924 15.3541 8.64424 15.9791 9.43293 16.4404C10.2216 16.9017 11.0773 17.1324 11.9999 17.1324C12.9225 17.1324 13.7782 16.9017 14.5669 16.4404C15.3555 15.9791 15.9805 15.3541 16.4419 14.5654C16.9032 13.7767 17.1338 12.921 17.1338 11.9984C17.1338 11.0758 16.9032 10.2202 16.4419 9.43147C15.9805 8.64278 15.3555 8.01778 14.5669 7.55647ZM14.3663 14.3645C13.7115 15.0193 12.9229 15.3467 12.0002 15.3467C11.0776 15.3467 10.2889 15.0193 9.63416 14.3645C8.9794 13.7098 8.65202 12.9211 8.65202 11.9985C8.65202 11.0758 8.9794 10.2871 9.63416 9.63238C10.2889 8.97762 11.0776 8.65024 12.0002 8.65024C12.9229 8.65024 13.7115 8.97762 14.3663 9.63238C15.0211 10.2871 15.3484 11.0758 15.3484 11.9985C15.3484 12.9211 15.0211 13.7098 14.3663 14.3645Z"/>
<path d="M18.5628 6.64133C18.533 6.96871 18.4065 7.25145 18.1833 7.48955C17.9601 7.72764 17.6848 7.84669 17.3574 7.84669C17.03 7.84669 16.7473 7.72764 16.5092 7.48955C16.2711 7.25145 16.152 6.96871 16.152 6.64133C16.152 6.31395 16.2711 6.03121 16.5092 5.79312C16.7473 5.55502 17.03 5.43597 17.3574 5.43597C17.6848 5.43597 17.9675 5.55502 18.2056 5.79312C18.4437 6.03121 18.5628 6.31395 18.5628 6.64133Z"/>
</svg>
