<svg width="24" height="24" viewBox="0 0 24 24" xmlns="http://www.w3.org/2000/svg">
<path fill-rule="evenodd" clip-rule="evenodd" d="M0 5.38071L11.1837 12.2843C11.6735 12.6091 12.4082 12.6091 12.898 12.2843L24 5.7868V5.29949C24 4.48731 23.3469 4 22.6122 4H1.38776C0.734694 4 0 4.48731 0 5.29949V5.38071ZM0 17.8883V6.7614L7.26531 11.2284L0 17.8883ZM15.8367 11.9594L23.8367 19.3503C23.5918 19.7563 23.102 20 22.6122 20H1.3877C0.897902 20 0.408106 19.7563 0.163208 19.3503L8.32647 11.8782L10.4489 13.2589C11.4285 13.8274 12.653 13.8274 13.551 13.2589L15.8367 11.9594ZM24 7.16756V17.8884L16.8979 11.3097L24 7.16756Z"/>
</svg>
