<svg width="23" height="23" viewBox="0 0 23 23" xmlns="http://www.w3.org/2000/svg">
<path d="M8 1H1C0.734784 1 0.48043 1.10536 0.292893 1.29289C0.105357 1.48043 0 1.73478 0 2V9C0 9.26522 0.105357 9.51957 0.292893 9.70711C0.48043 9.89464 0.734784 10 1 10H8C8.26522 10 8.51957 9.89464 8.70711 9.70711C8.89464 9.51957 9 9.26522 9 9V2C9 1.73478 8.89464 1.48043 8.70711 1.29289C8.51957 1.10536 8.26522 1 8 1Z"/>
<path d="M22.7289 4.84597L18.1539 0.270975C17.9804 0.0975485 17.7451 0.00012207 17.4999 0.00012207C17.2546 0.00012207 17.0193 0.0975485 16.8459 0.270975L12.2709 4.84597C12.0974 5.01944 12 5.25469 12 5.49997C12 5.74526 12.0974 5.98051 12.2709 6.15397L16.8459 10.729C17.0193 10.9024 17.2546 10.9998 17.4999 10.9998C17.7451 10.9998 17.9804 10.9024 18.1539 10.729L22.7289 6.15397C22.9023 5.98051 22.9997 5.74526 22.9997 5.49997C22.9997 5.25469 22.9023 5.01944 22.7289 4.84597Z"/>
<path d="M21 14H14C13.7348 14 13.4804 14.1054 13.2929 14.2929C13.1054 14.4804 13 14.7348 13 15V22C13 22.2652 13.1054 22.5196 13.2929 22.7071C13.4804 22.8946 13.7348 23 14 23H21C21.2652 23 21.5196 22.8946 21.7071 22.7071C21.8946 22.5196 22 22.2652 22 22V15C22 14.7348 21.8946 14.4804 21.7071 14.2929C21.5196 14.1054 21.2652 14 21 14Z"/>
<path d="M8 14H1C0.734784 14 0.48043 14.1054 0.292893 14.2929C0.105357 14.4804 0 14.7348 0 15V22C0 22.2652 0.105357 22.5196 0.292893 22.7071C0.48043 22.8946 0.734784 23 1 23H8C8.26522 23 8.51957 22.8946 8.70711 22.7071C8.89464 22.5196 9 22.2652 9 22V15C9 14.7348 8.89464 14.4804 8.70711 14.2929C8.51957 14.1054 8.26522 14 8 14Z"/>
</svg>
