<svg width="24" height="24" viewBox="0 0 24 24" xmlns="http://www.w3.org/2000/svg">

<path d="M12.7897 12.9752C13.2275 12.5364 13.2275 11.8467 12.7897 11.4078C12.3518 10.969 11.6638 10.969 11.2259 11.4078C10.7881 11.8467 10.7881 12.5364 11.2259 12.9752C11.6638 13.4141 12.3518 13.4141 12.7897 12.9752ZM19.0446 5.07551C15.1665 1.18837 8.78656 1.18837 4.90852 5.07551C1.03049 8.96264 1.03049 15.3577 4.90852 19.2448C8.78656 23.1319 15.1665 23.1319 19.0446 19.2448C22.9851 15.3577 22.9851 8.96264 19.0446 5.07551ZM14.3534 14.5426L6.22204 17.9281L9.59969 9.77769L17.7311 6.39218L14.3534 14.5426Z"/>
</svg>
