<svg width="151" height="32" xmlns="http://www.w3.org/2000/svg">
  <path fill="#fff" fill-rule="evenodd" clip-rule="evenodd" d="M67.2687.00856443L55.5377 0s-4.6009.113035-4.6009 4.65301c0 4.67005 4.6009 4.56461 4.6009 4.56461l6.9713-.00951s.92 0 .92.96399c0 .8349-.9228.8349-.9228.8349H51.258v3.9179l11.655.0009s4.9611.189 4.9611-4.9141c0-4.39182-4.9611-4.52098-4.9611-4.52098h-6.6064s-1.0255 0-1.0255-.83679c0-.80921 1.0255-.8092 1.0255-.8092h10.9621V.00856443zM0 7.4585L7.64511 21.765h6.15969l7.5444-14.30558h-5.9743l-4.2607 8.69998c-.2205.4492-.2205.9527-.2205.9527s0-.5035-.2263-.965L6.4077 7.45942 0 7.4585zm28.9583.00097V21.746H23.637V7.45947h5.3213zm61.2293 0l-7.1784.00099-2.2097 5.91334c-.1816.4891-.2348 1.4237-.2348 1.4237s-.077-.9488-.2528-1.4237l-2.1917-5.91334-7.1518-.00099-.0067 14.28853 4.5896-.002v-8.4995s0 .5043.1957.9593l3.2486 7.5422h3.1382l3.2485-7.717c.193-.4577.193-.9621.193-.9621v8.6771h4.6123V7.45947zM124.636 21.7489l5.257-.0029V7.45947h-5.022v7.84423s0-.5043-.33-.888l-5.967-6.95623h-5.291V21.746h5.291v-7.8432s0 .5034.316.8862l5.746 6.9599zm-13.071-.0009l-7.229-14.28657h-5.6201L91.4871 21.748h5.6198l1.3362-2.6423 6.1649.001 1.337 2.6413h.22v.001h4.912l-.001-.001h.489zm-11.7694-6.259s1.2854-2.5473 1.5074-2.9889c.222-.4417.222-.9451.222-.9451s0 .5034.224.9469l1.514 3.0013-3.4674-.0142zm-60.9854 2.4466l.001-1.9823h7.9815v-3.2149h-7.9815V10.968h9.7151V7.46046l-14.759-.00099V21.746h15.1468v-3.8095l-10.1039-.0009zm106.9338 3.8153L151 21.749V7.46143h-5.022v7.84427s0-.5044-.329-.8881l-5.967-6.95617h-5.291V21.749h5.291v-7.8443s0 .5044.316.8871l5.746 6.9591zm-78.4717-4.6691l-11.731-.0076s-4.6018.1121-4.6018 4.653c0 4.6691 4.6018 4.5637 4.6018 4.5637l6.9704-.0086s.92 0 .92.964c0 .8349-.9219.8349-.9219.8349H51.2616v3.9179h11.654s4.9621.1899 4.9621-4.9133c0-4.3927-4.9621-4.521-4.9621-4.521l-6.6054-.0009s-1.0255 0-1.0255-.8367c0-.8092 1.0255-.8092 1.0255-.8092l10.9621.0009v-3.8371z"></path>
</svg>